<?xml version="1.0" encoding="UTF-8"?><svg id="Layer_2" xmlns="http://www.w3.org/2000/svg" xmlns:xlink="http://www.w3.org/1999/xlink" viewBox="0 0 956.2763297057 227.8246113553"><defs><style>.cls-1{fill:url(#Orchid-21);}.cls-1,.cls-2,.cls-3,.cls-4,.cls-5,.cls-6,.cls-7,.cls-8,.cls-9,.cls-10,.cls-11,.cls-12,.cls-13,.cls-14,.cls-15,.cls-16,.cls-17,.cls-18,.cls-19,.cls-20,.cls-21,.cls-22,.cls-23,.cls-24,.cls-25,.cls-26,.cls-27,.cls-28,.cls-29,.cls-30,.cls-31,.cls-32,.cls-33,.cls-34,.cls-35,.cls-36,.cls-37,.cls-38,.cls-39,.cls-40,.cls-41,.cls-42,.cls-43,.cls-44{stroke:#000;}.cls-1,.cls-2,.cls-3,.cls-4,.cls-5,.cls-7,.cls-8,.cls-9,.cls-10,.cls-11,.cls-12,.cls-13,.cls-14,.cls-15,.cls-16,.cls-17,.cls-18,.cls-19,.cls-20,.cls-21,.cls-22,.cls-24,.cls-25,.cls-26,.cls-27,.cls-28,.cls-29,.cls-31,.cls-32,.cls-33,.cls-35,.cls-36,.cls-37,.cls-38,.cls-39,.cls-40,.cls-41,.cls-42,.cls-43,.cls-44{stroke-width:4px;}.cls-1,.cls-2,.cls-5,.cls-7,.cls-8,.cls-9,.cls-10,.cls-11,.cls-12,.cls-13,.cls-15,.cls-16,.cls-17,.cls-18,.cls-19,.cls-20,.cls-21,.cls-22,.cls-23,.cls-24,.cls-25,.cls-26,.cls-27,.cls-28,.cls-30,.cls-31,.cls-32,.cls-33,.cls-35,.cls-36,.cls-37,.cls-38,.cls-39,.cls-41,.cls-42,.cls-43,.cls-44{stroke-linecap:round;}.cls-1,.cls-2,.cls-5,.cls-7,.cls-8,.cls-9,.cls-10,.cls-11,.cls-12,.cls-13,.cls-15,.cls-16,.cls-17,.cls-18,.cls-19,.cls-20,.cls-22,.cls-23,.cls-24,.cls-25,.cls-26,.cls-27,.cls-28,.cls-30,.cls-31,.cls-32,.cls-33,.cls-34,.cls-35,.cls-36,.cls-37,.cls-38,.cls-39,.cls-41,.cls-42,.cls-43,.cls-44{stroke-linejoin:round;}.cls-2{fill:url(#Orchid-27);}.cls-3,.cls-4,.cls-6,.cls-14,.cls-21,.cls-29,.cls-40{stroke-miterlimit:10;}.cls-3,.cls-21,.cls-34{fill:none;}.cls-4{fill:url(#Orchid-16);}.cls-5{fill:url(#Orchid-35);}.cls-6{fill:#e6e6e6;stroke-width:6px;}.cls-7{fill:url(#Orchid-29);}.cls-8{fill:url(#Orchid-33);}.cls-9{fill:url(#Orchid-8);}.cls-10{fill:url(#Orchid-14);}.cls-11{fill:url(#Orchid);}.cls-12{fill:url(#Orchid-9);}.cls-13{fill:url(#Orchid-10);}.cls-14{fill:url(#Orchid-36);}.cls-15{fill:url(#Orchid-22);}.cls-16{fill:url(#Orchid-3);}.cls-17{fill:url(#Orchid-17);}.cls-18{fill:url(#Orchid-25);}.cls-19{fill:url(#Orchid-26);}.cls-20{fill:url(#Orchid-34);}.cls-22{fill:url(#Orchid-6);}.cls-23{fill:url(#Orchid-18);}.cls-23,.cls-30{stroke-width:3px;}.cls-24{fill:url(#Orchid-5);}.cls-25{fill:url(#Orchid-40);}.cls-26{fill:url(#Orchid-39);}.cls-27{fill:url(#Orchid-23);}.cls-28{fill:url(#Orchid-4);}.cls-29{fill:url(#Orchid-11);}.cls-30{fill:url(#Orchid-38);}.cls-31{fill:url(#Orchid-28);}.cls-32{fill:url(#Orchid-24);}.cls-45{fill:#0071bc;}.cls-46{fill:#77b3f5;}.cls-33{fill:url(#Orchid-7);}.cls-34{stroke-width:8px;}.cls-35{fill:url(#Orchid-13);}.cls-47{fill:#56c4c3;}.cls-36{fill:url(#Orchid-20);}.cls-37{fill:url(#Orchid-2);}.cls-38{fill:url(#Orchid-37);}.cls-39{fill:url(#Orchid-12);}.cls-40{fill:url(#Orchid-31);}.cls-48{fill:#f0c474;}.cls-41{fill:url(#Orchid-30);}.cls-42{fill:url(#Orchid-19);}.cls-43{fill:url(#Orchid-32);}.cls-44{fill:url(#Orchid-15);}</style><linearGradient id="Orchid" x1="11.9583703833" y1="188.8541621163" x2="171.2883693261" y2="188.8541621163" gradientUnits="userSpaceOnUse"><stop offset="0" stop-color="#ff7bac"/><stop offset=".2159613612" stop-color="#ff7bac" stop-opacity=".7626597502"/><stop offset=".6040962827" stop-color="#ff7bac" stop-opacity=".3563386261"/><stop offset=".8737362822" stop-color="#ff7bac" stop-opacity=".099805646"/><stop offset="1" stop-color="#ff7bac" stop-opacity="0"/></linearGradient><linearGradient id="Orchid-2" x1="72.3987644526" y1="189.2709089957" x2="103.716701105" y2="189.2709089957" xlink:href="#Orchid"/><linearGradient id="Orchid-3" x1="30.8446298291" y1="112.5930986729" x2="124.651891019" y2="112.5930986729" xlink:href="#Orchid"/><linearGradient id="Orchid-4" x1="58.4600761295" y1="117.9768439965" x2="79.3679585246" y2="117.9768439965" xlink:href="#Orchid"/><linearGradient id="Orchid-5" x1="223.366314845" y1="170.7530232177" x2="252.6938213011" y2="170.7530232177" xlink:href="#Orchid"/><linearGradient id="Orchid-6" x1="136.6885479117" y1="154.068975157" x2="215.1270950978" y2="154.068975157" xlink:href="#Orchid"/><linearGradient id="Orchid-7" x1="152.4250226627" y1="154.8012367147" x2="183.1233870881" y2="154.8012367147" xlink:href="#Orchid"/><linearGradient id="Orchid-8" x1="193.872483496" y1="134.3897295066" x2="228.7550444221" y2="134.3897295066" xlink:href="#Orchid"/><linearGradient id="Orchid-9" x1="227.9639534221" y1="142.8231368478" x2="273.2626216893" y2="142.8231368478" xlink:href="#Orchid"/><linearGradient id="Orchid-10" x1="178.2709814467" y1="101.7300595636" x2="222.0574545714" y2="101.7300595636" xlink:href="#Orchid"/><linearGradient id="Orchid-11" x1="262.2993606989" y1="169.0897616805" x2="321.7009532941" y2="169.0897616805" gradientTransform="translate(.3372089385 -.2332653459) rotate(.0452000397)" xlink:href="#Orchid"/><linearGradient id="Orchid-12" x1="232.2087558199" y1="196.3361610941" x2="300.6116660202" y2="196.3361610941" gradientTransform="translate(.3372089385 -.2332653459) rotate(.0452000397)" xlink:href="#Orchid"/><linearGradient id="Orchid-13" x1="253.9318615198" y1="196.984054248" x2="280.7025953034" y2="196.984054248" gradientTransform="translate(.3372089385 -.2332653459) rotate(.0452000397)" xlink:href="#Orchid"/><linearGradient id="Orchid-14" x1="299.7323933823" y1="142.8149446125" x2="343.7632351956" y2="142.8149446125" xlink:href="#Orchid"/><linearGradient id="Orchid-15" x1="173.3794062836" y1="183.6384724484" x2="217.4450712959" y2="183.6384724484" xlink:href="#Orchid"/><linearGradient id="Orchid-16" x1="349.8164211491" y1="179.6751019472" x2="394.8192166026" y2="179.6751019472" xlink:href="#Orchid"/><linearGradient id="Orchid-17" x1="327.8066051795" y1="201.3548773778" x2="361.7230677231" y2="201.3548773778" gradientTransform="translate(.3372089385 -.2332653459) rotate(.0452000397)" xlink:href="#Orchid"/><linearGradient id="Orchid-18" x1="322.7332611437" y1="165.1655456243" x2="340.6682020769" y2="165.1655456243" gradientTransform="translate(.3372089385 -.2332653459) rotate(.0452000397)" xlink:href="#Orchid"/><linearGradient id="Orchid-19" x1="10.198967623" y1="155.4329074112" x2="60.9070123086" y2="155.4329074112" xlink:href="#Orchid"/><linearGradient id="Orchid-20" x1="139.1218761047" y1="123.0869606524" x2="173.038349203" y2="123.0869606524" xlink:href="#Orchid"/><linearGradient id="Orchid-21" x1="-91.6563059757" y1="187.7477356521" x2="67.6736929671" y2="187.7477356521" gradientTransform="translate(851.7419713513) rotate(-180) scale(1 -1)" xlink:href="#Orchid"/><linearGradient id="Orchid-22" x1="-31.2159119064" y1="188.1644825316" x2=".102024746" y2="188.1644825316" gradientTransform="translate(851.7419713513) rotate(-180) scale(1 -1)" xlink:href="#Orchid"/><linearGradient id="Orchid-23" x1="-71.7700465301" y1="115.4866722088" x2="22.0372146599" y2="115.4866722088" gradientTransform="translate(851.7419713513) rotate(-180) scale(1 -1)" xlink:href="#Orchid"/><linearGradient id="Orchid-24" x1="-44.1546002296" y1="120.8704175324" x2="-23.2467178345" y2="120.8704175324" gradientTransform="translate(851.7419713513) rotate(-180) scale(1 -1)" xlink:href="#Orchid"/><linearGradient id="Orchid-25" x1="120.7516384858" y1="173.6465967536" x2="150.079144942" y2="173.6465967536" gradientTransform="translate(851.7419713513) rotate(-180) scale(1 -1)" xlink:href="#Orchid"/><linearGradient id="Orchid-26" x1="34.0738715526" y1="156.9625486929" x2="112.5124187386" y2="156.9625486929" gradientTransform="translate(851.7419713513) rotate(-180) scale(1 -1)" xlink:href="#Orchid"/><linearGradient id="Orchid-27" x1="49.8103463036" y1="157.6948102506" x2="80.5087107289" y2="157.6948102506" gradientTransform="translate(851.7419713513) rotate(-180) scale(1 -1)" xlink:href="#Orchid"/><linearGradient id="Orchid-28" x1="91.2578071368" y1="137.2833030425" x2="126.140368063" y2="137.2833030425" gradientTransform="translate(851.7419713513) rotate(-180) scale(1 -1)" xlink:href="#Orchid"/><linearGradient id="Orchid-29" x1="125.3492770629" y1="145.7167103837" x2="170.6479453301" y2="145.7167103837" gradientTransform="translate(851.7419713513) rotate(-180) scale(1 -1)" xlink:href="#Orchid"/><linearGradient id="Orchid-30" x1="76.6563050871" y1="112.6236330995" x2="120.4427782119" y2="112.6236330995" gradientTransform="translate(851.7419713513) rotate(-180) scale(1 -1)" xlink:href="#Orchid"/><linearGradient id="Orchid-31" x1="159.6870309108" y1="172.0642850245" x2="219.0886235059" y2="172.0642850245" gradientTransform="translate(851.404762069 -.2332653271) rotate(179.9547999629) scale(1.0000003112 -1.0000003112)" xlink:href="#Orchid"/><linearGradient id="Orchid-32" x1="129.5964260318" y1="199.3106844381" x2="197.9993362321" y2="199.3106844381" gradientTransform="translate(851.404762069 -.2332653271) rotate(179.9547999629) scale(1.0000003112 -1.0000003112)" xlink:href="#Orchid"/><linearGradient id="Orchid-33" x1="151.3195317317" y1="199.958577592" x2="178.0902655153" y2="199.958577592" gradientTransform="translate(851.404762069 -.2332653271) rotate(179.9547999629) scale(1.0000003112 -1.0000003112)" xlink:href="#Orchid"/><linearGradient id="Orchid-34" x1="196.1177170232" y1="144.7085181484" x2="240.1485588365" y2="144.7085181484" gradientTransform="translate(851.7419713513) rotate(-180) scale(1 -1)" xlink:href="#Orchid"/><linearGradient id="Orchid-35" x1="70.7647299244" y1="186.5320459843" x2="114.8303949367" y2="186.5320459843" gradientTransform="translate(851.7419713513) rotate(-180) scale(1 -1)" xlink:href="#Orchid"/><linearGradient id="Orchid-36" x1="247.20174479" y1="182.5686754831" x2="292.2045402435" y2="182.5686754831" gradientTransform="translate(851.7419713513) rotate(-180) scale(1 -1)" xlink:href="#Orchid"/><linearGradient id="Orchid-37" x1="225.1942753914" y1="204.3294007218" x2="259.110737935" y2="204.3294007218" gradientTransform="translate(851.404762069 -.2332653271) rotate(179.9547999629) scale(1.0000003112 -1.0000003112)" xlink:href="#Orchid"/><linearGradient id="Orchid-38" x1="220.1209313556" y1="168.1400689683" x2="238.0558722888" y2="168.1400689683" gradientTransform="translate(851.404762069 -.2332653271) rotate(179.9547999629) scale(1.0000003112 -1.0000003112)" xlink:href="#Orchid"/><linearGradient id="Orchid-39" x1="-94.4157087361" y1="158.3264809471" x2="-43.7076640505" y2="158.3264809471" gradientTransform="translate(851.7419713513) rotate(-180) scale(1 -1)" xlink:href="#Orchid"/><linearGradient id="Orchid-40" x1="36.5071997455" y1="125.9805341883" x2="70.4236728438" y2="125.9805341883" gradientTransform="translate(851.7419713513) rotate(-180) scale(1 -1)" xlink:href="#Orchid"/></defs><g id="Layer_1-2"><rect class="cls-45" x="4.4007258547" y="5.1781225553" width="948.002473236" height="206.715631478"/><path class="cls-47" d="m953.1364909082,222.1227846991l-947.8185555703-.2608685298c.0757598078-37.6995961751-.464940631-66.8849802217-.3891808232-104.5845804507,50.58830221-10.2574138675,126.0644344977-31.9481279769,210.726458824-14.9616772905,136.5608459609,27.3993457405,165.832614703,91.318931752,280.3346057087,87.3002461654,86.553425498-3.0377661206,129.8065359836-66.0689775257,238.3400434954-79.7145689719,124.4218475174-15.6431846452,161.8028576273-.4074677388,218.5545623755,10.5728591431-1.5081872787,36.9567027557,1.7602532687,64.6918831249.25206599,101.6485899345Z"/><path d="m225.2174712517,103.7522620174c6.4691037772.5880944158,12.9150109567-2.5780283422,16.7430025329-7.7548761644,1.2923965557-1.7477938919,4.6236104158-7.1024448194.955063661-8.1267075201-1.8225912428-.5088696842-3.0436601815,1.0733828487-3.0826130531,2.7487410846-.0398531555,1.7140793367.955236793,3.1468893315,2.501975612,3.823514845,3.183508104,1.3926351231,7.2276983095-.3386314652,10.1588015781-1.6660058216,3.1718491169-1.4363981048,6.0479446187-3.4507721138,8.6950827474-5.6982992085,5.3456583161-4.5386796307,9.5659261328-10.1489939691,14.1547320513-15.4054924543,5.077028528-5.8157597511,10.8321304177-11.4334392685,18.3688858036-13.7993730517,2.1916340387-.6879964583,1.2558142198-4.1468129015-.9521398356-3.4536932732-11.4708444406,3.6009206872-18.6529321112,13.3802348223-26.1844868653,22.0760302899-3.7591130433,4.3402032158-7.819313777,8.588124892-12.7838500885,11.5562718646-2.4052648746,1.4380355401-5.1101713068,2.7091948828-7.8915755003,3.1970200642-.5510959372.0966556663-1.1530856273.1744721747-1.7067550444.0560193371-.2368436506-.0506706739-.4225483801-.1158498748-.6325937454-.2263578104-.1320811044-.0694897989-.0706275535-.2425017668-.1527319603-.3037652959-2.0611431301-1.5379552333-2.2124174184-1.1055488048-2.7328760144.2371890281-.2541667811.6557281511-.5818135481,1.2812161914-.9428720712,1.8842096581-2.9685298373,4.9576563991-8.8026453261,7.7932460395-14.5150498079,7.2739417754-2.2946727318-.2086045094-2.2805200644,3.3743147368,0,3.5816326531h0Z"/><path d="m294.6065341848,124.3510181849c14.0191426314,3.1349975118,28.6957869847.9674403066,41.6939487337-4.9394166735,12.6011091036-5.7264212204,23.1797836943-15.1237416693,31.3789936194-26.183535566,4.5983273744-6.202616288,8.4230903776-12.9486843479,11.5537938281-20.0015483464.3952574787-.8904379752.2518890938-1.9144170967-.6424581098-2.4501766911-.7586532109-.4544719712-2.0585542929-.2397907385-2.4501766911.6424581098-5.3314710756,12.0107640351-12.7131912873,23.1636910368-22.4207515406,32.0867393329-9.8964162855,9.0966420161-22.1360678713,15.4692786886-35.4098001457,17.8148154699-7.5168892123,1.3282729954-15.296970132,1.2439524901-22.7514098586-.4230289088-2.2453091963-.5021019422-3.2041667359,2.9500891004-.9521398356,3.4536932732h0Z"/><path d="m378.0715978157,72.8999246289c7.0570852753-.8762179434,12.4090746127-5.4459553719,15.0227607375-11.9798561254,2.397030337-5.9922873586,2.2741537915-13.2273102455-.721711478-18.9875780978-.7103419138-1.3658023049-1.6196627039-2.6708291287-2.6838733514-3.785350023-1.436667218-1.5045852401-3.9613277662-2.134804331-5.4379905562-.2756041206-1.5673344068,1.9733607961.0296888982,4.3191603141,1.7403704308,5.5383854638,1.8711966964,1.3336264107,4.2942348339,1.8969915229,6.5516867761,2.0839254713,9.3662847867.7755986135,17.2542321016-6.3776978969,22.2981919566-13.4999619548,2.635348656-3.7212130058,4.1427786682-8.2158121325,5.8445830628-12.4048575228,1.0843478993-2.6691566807,2.1497730973-5.3506859687,3.384926873-7.9548655494.9113211924-1.9214158492,1.8865651496-3.9478135553,3.3660171209-5.5040535145,1.5879275663-1.6703457625-.9405648643-4.2072598311-2.5325967367-2.5325967367-2.4808974597,2.6096634676-3.9390967277,6.1119869413-5.3325247659,9.3760427812-1.7263998163,4.0440304399-3.2609470775,8.1719864652-5.0538052192,12.187315429-1.1617800385,2.6019510018-2.5783819553,4.9568749877-4.4317644111,7.1249642851-2.6147824732,3.0587760651-5.3750603055,5.9025992473-8.9886379781,7.7710418812-3.3671470349,1.7410227881-7.3257610801,2.4904988693-11.0076537358,1.3589667471-.8421384343-.2588089276-1.6962092898-.5927718548-2.3633835194-1.183925121-.0341633137-.0302705854-.645822319-.6881451453-.5870680322-.7227941845.1604539667-.094624173-.2530408644.9804749235-.3201307856.8062202097.1621163138.4210696829.848049026.9148901817,1.1384040789,1.2964240672.3547951573.4662098131.6708574849.9684943188.9641931095,1.4751829039,2.592539631,4.4781817396,2.8288086332,10.1405075337,1.3656525391,15.0275756476-1.7060809474,5.6984581697-6.1150782187,10.4463100521-12.2156461157,11.2037654105-.9674232037.1201166681-1.779828746.737280136-1.7908163265,1.7908163265-.0091356756.8759676248.8312451872,1.909958071,1.7908163265,1.7908163265h0Z"/><path d="m292.9289591451,55.0671950708c-5.5859277146,5.9472160502-1.4697509149,15.8073668742,5.3500809962,18.7701612399,9.6265632093,4.182145192,20.1841967682-2.3857805756,27.4408452146-8.3098200843,7.5233358498-6.1417525102,13.602301534-13.8477490942,19.1223109334-21.7832641503,5.6611986618-8.1384874493,10.6108084738-16.8020401233,16.711678418-24.6281858428,2.3607624057-3.0283665715,4.8870893164-5.9660993303,7.7358665127-8.5490422414,1.6327211267-1.4803633873,2.9234871677-2.5338845933,4.9964727021-3.6080736252,2.1930421043-1.136400489.2549218405-4.4484550787-1.9364734661-3.3129079349-3.9705094894,2.057456588-7.2821193016,5.434863584-10.2011675204,8.7535438979-5.9841929404,6.8034584622-10.7390282106,14.529420265-15.6932048544,22.0824577955-5.0162924996,7.6477381081-10.2159059367,15.2372212224-16.5339389579,21.8841605951-3.0769524105,3.2371334649-6.4063117606,6.2578655828-10.0590242417,8.8352646316-3.849679596,2.7163814782-8.1152090934,5.1403472154-12.8340552496,5.877387086-4.2267048317.6601719741-8.6743453096-.4163846283-11.1543812171-4.109052967-1.8153609087-2.7029954406-2.6789858468-6.5844245079-.2320281501-9.1896472805,1.6894919069-1.7987653795-1.018252824-4.5173215687-2.7129811197-2.7129811197h0Z"/><path d="m294.286668828,59.1437535748c2.4687556869,0,2.4728447647-3.8367346939,0-3.8367346939-2.4687556869,0-2.4728447647,3.8367346939,0,3.8367346939h0Z"/><path d="m277.1400067547,43.6896643911c-5.3422672864,4.1799908075-12.6927521368,6.9661690477-19.3382351974,4.2766526564-3.0247603825-1.2241612166-4.7596623065-3.6277558039-4.4042114645-6.9543342954.1219948832-1.1417206165.8146405377-2.467276052-.1538991703-3.4288828393-.4960659847-.4925150862-1.2155352116-.6264367649-1.8756756572-.450037833-1.3294487172.3552476376-2.6386175342,1.2289860322-3.8451518423,1.8606087816-2.4594407198,1.2875213734-4.9178976458,2.5765384779-7.3965294924,3.8269228608-7.2802937488,3.6726574052-14.7077233864,7.0761855651-22.3635384538,9.8944417722-8.2613984591,3.0411833726-16.9502411055,5.6327222551-25.7842543777,6.1516410861-7.2727520861.4272087775-15.0244928775-.6520899463-20.2923876579-5.8202948557-.5705114854-.5597151011-1.2322524097-1.285703283-1.6530154035-1.8331924486-.5937224489-.7725408672-1.5338314791-1.1639366304-2.4501766911-.6424581098-.7594746051.4322057761-1.2307262188,1.6847329119-.6424581098,2.4501766911,5.029286216,6.544015881,12.716373292,9.2361539155,20.7677987108,9.4924445434,9.0678601709.2886454827,18.1839884575-1.9912746157,26.7243761235-4.8408265326,8.3891932787-2.7991049966,16.5233345883-6.3555014143,24.4592876179-10.245878828,4.5048141221-2.2083582209,8.9645965185-4.5257910269,13.4118994138-6.8464592347.3564377546-.1859944746-.4280831373.1323635126-.1362173993.0580859135.054311411-.0138218389.1275570352-.0650380314.1845847482-.059561392.2023852955.0194360115-.5307093547.0287390775-.4095677051.054639414.021654332.0046297412-1.6866032053-2.2189172861-1.6817980274-2.2248359929-.0912523812.1123987694-.1411458006.591920895-.1763287739.7666675178-.1853416296.9205539165-.3169253406,1.8731538528-.3211355034,2.8130453172-.0158288227,3.5336817353,1.7952221388,6.5394240599,4.7948299486,8.3450892148,6.3103413101,3.7986177334,14.5027231649,2.4026348275,20.6140955369-1.0361425062,1.5902439466-.8948063554,3.0650419792-1.951909966,4.5003055639-3.0749141642.7677545769-.6007200505.6180877058-1.9008252835,0-2.5325967367-.743896715-.7603657284-1.7750617786-.5927238364-2.5325967367,0h0Z"/><path d="m269.8997413196,36.5527370507c-.2692261244,3.1555090605,1.7055561642,5.8939549065,4.1996449005,7.614196404,2.7767901223,1.9152284074,6.3557921957,2.4636918026,9.6610562605,2.2229703783,6.8297257159-.4974069452,13.2686399766-3.7176896615,18.6034655107-7.8658779875,8.9296778171-6.9434295533,15.1379763508-16.7459846235,22.5813073902-25.1406361663,2.3228936746-2.6197790836,4.729297623-4.7745343577,7.4754768397-6.6202933704,1.9032000698-1.2791767778.1124534086-4.3832187274-1.8077185814-3.0926348009-5.60064094,3.7642967469-9.6744695329,8.8416198048-13.9074511101,14.0210181683-7.545707356,9.2327886664-15.1025339234,19.7261642436-26.8579995695,23.7614422061-3.416637531,1.1728231403-7.2292794746,1.9289829483-10.8020946688,1.0283010344-2.73985818-.6906992316-5.8345081966-2.7585867196-5.5640543187-5.9284858662.1959245136-2.2963654781-3.3868226337-2.2833028642-3.5816326531,0h0Z"/><path d="m123.5823071324,64.5034391065c-4.090727073,3.3701194127-3.7186927016,9.6979655806-1.3740656307,13.9619416289,2.1338422141,3.8806393582,6.0189793851,6.5844883921,10.2387302261,7.7559330255,4.2071352119,1.1679424098,8.8114903173.8687866342,12.747776407-1.055140645,4.0842655481-1.9962547752,9.2029913173-7.601138676,6.2483433977-12.3882499527-1.442033426-2.3363780263-4.6647972137-2.6152126783-6.4570979186-.5492048569-1.9126307446,2.2047137889-.8208075933,4.5834768912.8488636732,6.4841736599,3.4188700947,3.8919249988,8.2758951621,6.3793904391,13.2583580738,7.5981818464,12.0965462677,2.9590118201,23.7692898081-1.515079154,34.772495886-6.2202595057,12.165194547-5.2020687382,26.9387838928-11.7147697421,39.925692361-5.2931866906,2.0593210665,1.0182639918,3.8761377531-2.0698721065,1.8077185814-3.0926348009-9.744528835-4.818336971-20.9725711282-3.2806134823-30.8987812872.1641317854-10.476269588,3.6356353037-20.2550125131,9.392692915-31.278882607,11.3494237458-8.4376940417,1.4976860151-18.4597148119-.0489549226-24.5783409479-6.5170552495-.3658378526-.3867332113-1.3696736482-1.1921551612-1.3298454138-1.7783469531.0341931893-.5032552215.4564848538-.6132179072.7866438217-.3778670417.7483992596.5334897143.2590119203,2.1774993046-.0099767896,2.8154852303-.4335815913,1.0283664063-1.1428168416,1.9123513312-1.9412324355,2.6799223884-2.4899711863,2.393778166-5.9778148364,3.3957071546-9.3757619518,3.2835504219-3.9066214738-.1289466509-7.7846283905-1.7790226914-10.3638826901-4.7529185517-2.6200815168-3.0209698895-4.0018387906-8.6455023127-.494158019-11.535282748,1.7803000243-1.4666888221-.7661123673-3.9879036197-2.5325967367-2.5325967367h0Z"/><path d="m113.2240077362,33.6721262026c-7.0123403983,13.8659547175-17.6962928898,25.6904413538-30.3426831657,34.657846023-14.0000254682,9.9272512562-30.27516193,16.4399801925-47.1661645637,19.3548602157-9.9784795953,1.7219860458-20.1601605323,2.1120538428-30.2543494195,1.3966382948-2.3000936025-.1630168351-2.2898613125,3.4193410213,0,3.5816326531,18.2725823294,1.2950510088,36.8196351331-1.1880500741,53.9372714222-7.7910247927,15.7390358068-6.0711919434,30.2510205219-15.4116494605,41.7617928592-27.8002633512,6.0042751786-6.4621768811,11.1737980018-13.716186643,15.1567676683-21.5919704613,1.0377742932-2.0520583057-2.0510707699-3.8672705809-3.0926348009-1.8077185814h0Z"/><path d="m379.1582864485,124.5431885744c10.2441183174,6.0367910475,23.4346897904,1.2037357665,29.021843604-8.8434295988,1.1212522598-2.0163051253-1.9710196968-3.8246761958-3.0926348009-1.8077185814-4.6459415046,8.3546192089-15.5257157583,12.6239463155-24.1214902218,7.5585133793-1.9901866398-1.1728037999-3.7943532612,1.9219241474-1.8077185814,3.0926348009h0Z"/><path d="m345.6275817299,110.1270444348c-2.8050151411,2.3587287477-.9043600129,6.5923073935.5523266469,9.1476118809,1.696257601,2.9755573241,4.0930515409,5.5176251102,6.9036291363,7.4641190349,6.0440059342,4.1858374061,14.1324315799,4.9563308144,20.9152345516,2.1765680204,3.7469670567-1.5356010867,7.3313544259-4.0937591097,9.0014075781-7.9021405401.3912469363-.8921976913.2545089455-1.912847672-.6424581098-2.4501766911-.755651735-.452673934-2.0624617549-.2416852251-2.4501766911.6424581098-3.0925554431,7.0522490291-12.8703174241,8.9999696197-19.6225220854,7.042409848-3.3511452211-.9715444663-6.3398590076-2.9361121624-8.6691820416-5.5217439066-1.1492577994-1.2757171955-2.1047617856-2.7104786206-2.8706119879-4.2468743773-.4577355701-.9182774718-1.602450852-2.9641055621-.5850502604-3.8196346422,1.7663023824-1.4852783307-.778485649-4.0076234446-2.5325967367-2.5325967367h0Z"/><path d="m77.2654743017,72.1134351302c-2.0196211782,3.2727992177-.508858948,7.286762314,2.3123649554,9.5447287986,3.5654989651,2.8536470127,8.4270668418,2.7902790778,12.7171343099,2.1320224372,8.4281106437-1.2931870747,16.729043594-4.5900333456,23.8921878425-9.1874336524,3.9696550988-2.547776917,7.6509269402-5.5531730145,10.9038503835-8.9698278826,1.5892525478-1.6692453877-.9393376157-4.206050363-2.5325967367-2.5325967367-4.9718994993,5.2221532183-10.9251871962,9.3701518885-17.4570398906,12.4088263167-3.3394671605,1.5535490372-6.8347496985,2.7746505419-10.3994230171,3.6971800437-3.5954240692.9304877275-7.6167279656,1.9063877179-11.3337145479,1.1833141528-2.6533215932-.5161564782-7.010546166-3.2268149961-5.0101284981-6.4684948959,1.2138257774-1.9670065345-1.8830580692-3.7678395307-3.0926348009-1.8077185814h0Z"/><path d="m259.4594738678,87.3110880754c1.1750268975,5.5687841308,3.5991632343,10.8664037716,7.5163803369,15.0439241431,3.2798247454,3.49777261,7.5073159184,6.0338024904,12.073061161,7.4611393899,4.1193698853,1.2877916589,8.548534037,1.67539618,12.825751303,1.1095927839,5.9165362636-.7826575324,11.5279124969-3.4935927768,16.3770429494-6.8904914635,6.3788932266-4.4685236324,11.7129589107-10.1804587024,16.9444160367-15.9003168717l-2.5325967367-2.5325967367c-2.4129700801,3.0176502194-2.1411163505,7.0179272277.0647385173,10.1002791892,2.5775102868,3.6016847728,6.6407551613,4.9468322428,10.9526065231,4.250801157,4.762547136-.7687836561,8.9032837213-3.7525936672,12.4601504964-6.8483627385,3.4343590569-2.989142754,6.4515161427-6.4618729782,8.9965090002-10.2350643513,2.9222991436-4.3325834436,5.1648678453-9.1127167287,6.6888215596-14.1094277078.6739065426-2.209592187-2.7820930007-3.1541702673-3.4536932732-.9521398356-2.230013448,7.3117264489-6.1564116813,14.0554603389-11.4382279774,19.5857882696-2.7191581746,2.8470956878-5.775476992,5.5351785959-9.2648296915,7.3970453662-2.9987803984,1.6001046773-7.1239879379,2.7700132861-10.1866109197.6909006121-2.102333012-1.4272038172-4.1844628402-4.9740984814-2.286867498-7.3472232243,1.4056165207-1.7578581007-.9443658442-4.2691024991-2.5325967367-2.5325967367-8.1630250778,8.9251129376-17.3387053113,19.0076724674-29.7391522324,21.5434093644-7.5194999685,1.5376440574-16.1060156309-.6221884287-21.8916813338-5.8292557762-4.3786955717-3.9408019591-6.9156967687-9.2522476701-8.1195282109-14.9575446688-.4755965451-2.2539862691-3.9289269165-1.3001265397-3.4536932732.9521398356h0Z"/><path class="cls-48" d="m34.0532880227,46.5380516225c.6557772463-2.7996833836,4.7801035439-2.7996910947,5.4358815495,0l.1609982357.6873992735c.5663208732,2.4176609533,2.4961902358,4.3185311448,4.9852547609,4.9102111944l1.4508946378.3449124857c2.8288175629.6724991881,2.8288175629,4.5621808462,0,5.2346785655l-1.4508946378.34491322c-2.4890645251.591680784-4.4189338877,2.4925495067-4.9852152749,4.9102115616l-.1610377217.6873985391c-.6557780057,2.7996914619-4.7801043032,2.7996914619-5.4358815495,0l-.1610384811-.6873985391c-.5662806278-2.4176620549-2.4961499904-4.3185307776-4.9852137562-4.9102115616l-1.4508953971-.34491322c-2.8288165188-.6724977193-2.8288045591-4.5621793774,0-5.2346785655l1.4508953971-.3449124857c2.4890637657-.5916800496,4.4189331284-2.4925502411,4.9852540015-4.9102111944l.1609982357-.6873992735Z"/><path class="cls-48" d="m308.9058655055,23.4843729087c.4493178687-1.9404473454,3.2751760578-1.94045269,3.7244944468,0l.110310909.4764331936c.3880251856,1.6756694012,1.710310754,2.9931535635,3.4157391959,3.4032442146l.9941072064.2390572167c1.9382164987.4661060147,1.9382164987,3.1620260221,0,3.6281310188l-.9941072064.2390577257c-1.7054284419.4100911601-3.0277140103,1.7275743043-3.4157121413,3.4032444691l-.1103379635.4764326846c-.449318389,1.9404529445-3.2751765781,1.9404529445-3.7244944468,0l-.1103384838-.4764326846c-.3879976107-1.6756701647-1.7102831791-2.993153309-3.4157111007-3.4032444691l-.9941077266-.2390577257c-1.9382157833-.4661049967-1.9382075889-3.1620250041,0-3.6281310188l.9941077266-.2390572167c1.7054279216-.4100906511,3.02771349-1.7275748133,3.4157386756-3.4032442146l.110310909-.4764331936Z"/><path class="cls-48" d="m379.9664934927,97.6836152315c.3044974171-1.2521182788,2.219548163-1.2521217275,2.5240459326,0l.0747564012.3074294759c.2629600891,1.0812642206,1.159057414,1.9314011777,2.3148061428,2.1960216021l.673694722.1542571672c1.3135064476.3007656262,1.3135064476,2.0403700156,0,2.3411349848l-.673694722.1542574957c-1.1557487288.2646207529-2.0518460537,1.1147570531-2.3147878082,2.1960217663l-.0747747358.3074291474c-.3044977697,1.2521218917-2.2195485156,1.2521218917-2.5240459326,0l-.0747750884-.3074291474c-.2629414019-1.0812647132-1.1590387269-1.9314010134-2.314787103-2.1960217663l-.6736950746-.1542574957c-1.3135059628-.3007649693-1.3135004096-2.0403693587,0-2.3411349848l.6736950746-.1542571672c1.1557483762-.2646204245,2.0518457011-1.1147573815,2.3148057902-2.1960216021l.0747564012-.3074294759Z"/><path d="m112.9403870938,35.2472796903c4.3818059426,11.3436405916,15.471267511,19.0562066089,27.1821729802,21.3206398258,13.2622975138,2.5644120432,27.2806814476-1.0077886437,37.8545867856-9.3451595604,5.9650375704-4.7033455631,10.7172844764-10.6702136389,15.3860191246-16.6068756317l-2.993145005-.7902284506c.4110664147,3.0322771955.9500867097,6.2177473062,2.7146234151,8.7980153764,1.758398404,2.5712920805,4.4670506813,4.2834133626,7.5316216239,4.8281397031,6.5375504736,1.162047155,13.0419881933-1.6828620266,18.6454055715-4.753708907,5.7897936616-3.1729868764,11.2012204126-6.987157184,16.1606966517-11.3439279056,3.8550032701-3.386519981,7.3797441914-7.1103994942,11.059446772-10.6803799613,3.7537159938-3.6417869334,7.7372804358-6.9324496145,12.4585944642-9.2481396306,2.0692611437-1.0149224013.2561126154-4.1048939449-1.8077185814-3.0926348009-8.3879249297,4.11407373-14.4177356227,11.2745333341-21.077802016,17.5929994012-4.119266416,3.9079858268-8.5180887657,7.4768193662-13.3038158984,10.5410442179-5.2011190158,3.3301936577-11.0706336031,6.8779949337-17.3404994612,7.5685099783-2.9118765784.3206918028-6.1237166177-.0341010387-8.3202598671-2.161658192-2.3835199498-2.3086615393-2.8427159885-5.8735759071-3.2665994011-9.0003991149-.173248166-1.2779843937-2.2098577494-1.7862395821-2.993145005-.7902284506-3.8857630831,4.9410522865-7.8109169298,9.895881585-12.4739015926,14.1380366587-4.6269361871,4.2093599361-9.9943005581,7.4575096062-15.953498233,9.3927992636-11.4687627774,3.7245581028-24.3957384383,2.8191561858-34.6131869392-3.852076146-4.9717185853-3.246161678-9.2371639627-7.8783556516-11.3959021157-13.4669075089-.8218470374-2.127601618-4.2862278827-1.2031298211-3.4536932732.9521398356h0Z"/><circle class="cls-6" cx="483.147921988" cy="94.7490043125" r="76.2361849961"/><circle class="cls-3" cx="482.9720095805" cy="99.7097382584" r="3.7752808989"/><path class="cls-21" d="m5.4750021882,117.0309765619c44.9655265138-12.2010269165,109.3633944042-29.4027256388,191.6627470278-18.6612858195,154.8449084781,20.2098388672,178.2535407021,92.9397277832,290.7184323829,90.6904449463,100.9896936654-2.0197753906,118.4896883456-59.3820037842,249.3427688859-80.2662582397,27.5251268476-4.3930206299,57.0724378308-7.0021820068,90.1402779132-6.5182723999,54.4537342993.7968673706,94.1471752368,10.3617263133,124.8048751047,18.6994109447"/><path d="m277.1400067547,43.6896643911c-5.3422672864,4.1799908075-12.6927521368,6.9661690477-19.3382351974,4.2766526564-3.0247603825-1.2241612166-4.7596623065-3.6277558039-4.4042114645-6.9543342954.1219948832-1.1417206165.8146405377-2.467276052-.1538991703-3.4288828393-.4960659847-.4925150862-1.2155352116-.6264367649-1.8756756572-.450037833-1.3294487172.3552476376-2.6386175342,1.2289860322-3.8451518423,1.8606087816-2.4594407198,1.2875213734-4.9178976458,2.5765384779-7.3965294924,3.8269228608-7.2802937488,3.6726574052-14.7077233864,7.0761855651-22.3635384538,9.8944417722-8.2613984591,3.0411833726-16.9502411055,5.6327222551-25.7842543777,6.1516410861-7.2727520861.4272087775-15.0244928775-.6520899463-20.2923876579-5.8202948557-.5705114854-.5597151011-1.2322524097-1.285703283-1.6530154035-1.8331924486-.5937224489-.7725408672-1.5338314791-1.1639366304-2.4501766911-.6424581098-.7594746051.4322057761-1.2307262188,1.6847329119-.6424581098,2.4501766911,5.029286216,6.544015881,12.716373292,9.2361539155,20.7677987108,9.4924445434,9.0678601709.2886454827,18.1839884575-1.9912746157,26.7243761235-4.8408265326,8.3891932787-2.7991049966,16.5233345883-6.3555014143,24.4592876179-10.245878828,4.5048141221-2.2083582209,8.9645965185-4.5257910269,13.4118994138-6.8464592347.3564377546-.1859944746-.4280831373.1323635126-.1362173993.0580859135.054311411-.0138218389.1275570352-.0650380314.1845847482-.059561392.2023852955.0194360115-.5307093547.0287390775-.4095677051.054639414.021654332.0046297412-1.6866032053-2.2189172861-1.6817980274-2.2248359929-.0912523812.1123987694-.1411458006.591920895-.1763287739.7666675178-.1853416296.9205539165-.3169253406,1.8731538528-.3211355034,2.8130453172-.0158288227,3.5336817353,1.7952221388,6.5394240599,4.7948299486,8.3450892148,6.3103413101,3.7986177334,14.5027231649,2.4026348275,20.6140955369-1.0361425062,1.5902439466-.8948063554,3.0650419792-1.951909966,4.5003055639-3.0749141642.7677545769-.6007200505.6180877058-1.9008252835,0-2.5325967367-.743896715-.7603657284-1.7750617786-.5927238364-2.5325967367,0h0Z"/><path d="m123.5823071324,64.5034391065c-4.090727073,3.3701194127-3.7186927016,9.6979655806-1.3740656307,13.9619416289,2.1338422141,3.8806393582,6.0189793851,6.5844883921,10.2387302261,7.7559330255,4.2071352119,1.1679424098,8.8114903173.8687866342,12.747776407-1.055140645,4.0842655481-1.9962547752,9.2029913173-7.601138676,6.2483433977-12.3882499527-1.442033426-2.3363780263-4.6647972137-2.6152126783-6.4570979186-.5492048569-1.9126307446,2.2047137889-.8208075933,4.5834768912.8488636732,6.4841736599,3.4188700947,3.8919249988,8.2758951621,6.3793904391,13.2583580738,7.5981818464,12.0965462677,2.9590118201,23.7692898081-1.515079154,34.772495886-6.2202595057,12.165194547-5.2020687382,26.9387838928-11.7147697421,39.925692361-5.2931866906,2.0593210665,1.0182639918,3.8761377531-2.0698721065,1.8077185814-3.0926348009-9.744528835-4.818336971-20.9725711282-3.2806134823-30.8987812872.1641317854-10.476269588,3.6356353037-20.2550125131,9.392692915-31.278882607,11.3494237458-8.4376940417,1.4976860151-18.4597148119-.0489549226-24.5783409479-6.5170552495-.3658378526-.3867332113-1.3696736482-1.1921551612-1.3298454138-1.7783469531.0341931893-.5032552215.4564848538-.6132179072.7866438217-.3778670417.7483992596.5334897143.2590119203,2.1774993046-.0099767896,2.8154852303-.4335815913,1.0283664063-1.1428168416,1.9123513312-1.9412324355,2.6799223884-2.4899711863,2.393778166-5.9778148364,3.3957071546-9.3757619518,3.2835504219-3.9066214738-.1289466509-7.7846283905-1.7790226914-10.3638826901-4.7529185517-2.6200815168-3.0209698895-4.0018387906-8.6455023127-.494158019-11.535282748,1.7803000243-1.4666888221-.7661123673-3.9879036197-2.5325967367-2.5325967367h0Z"/><path d="m379.1582864485,124.5431885744c10.2441183174,6.0367910475,23.4346897904,1.2037357665,29.021843604-8.8434295988,1.1212522598-2.0163051253-1.9710196968-3.8246761958-3.0926348009-1.8077185814-4.6459415046,8.3546192089-15.5257157583,12.6239463155-24.1214902218,7.5585133793-1.9901866398-1.1728037999-3.7943532612,1.9219241474-1.8077185814,3.0926348009h0Z"/><path d="m345.6275817299,110.1270444348c-2.8050151411,2.3587287477-.9043600129,6.5923073935.5523266469,9.1476118809,1.696257601,2.9755573241,4.0930515409,5.5176251102,6.9036291363,7.4641190349,6.0440059342,4.1858374061,14.1324315799,4.9563308144,20.9152345516,2.1765680204,3.7469670567-1.5356010867,7.3313544259-4.0937591097,9.0014075781-7.9021405401.3912469363-.8921976913.2545089455-1.912847672-.6424581098-2.4501766911-.755651735-.452673934-2.0624617549-.2416852251-2.4501766911.6424581098-3.0925554431,7.0522490291-12.8703174241,8.9999696197-19.6225220854,7.042409848-3.3511452211-.9715444663-6.3398590076-2.9361121624-8.6691820416-5.5217439066-1.1492577994-1.2757171955-2.1047617856-2.7104786206-2.8706119879-4.2468743773-.4577355701-.9182774718-1.602450852-2.9641055621-.5850502604-3.8196346422,1.7663023824-1.4852783307-.778485649-4.0076234446-2.5325967367-2.5325967367h0Z"/><path d="m77.2654743017,72.1134351302c-2.0196211782,3.2727992177-.508858948,7.286762314,2.3123649554,9.5447287986,3.5654989651,2.8536470127,8.4270668418,2.7902790778,12.7171343099,2.1320224372,8.4281106437-1.2931870747,16.729043594-4.5900333456,23.8921878425-9.1874336524,3.9696550988-2.547776917,7.6509269402-5.5531730145,10.9038503835-8.9698278826,1.5892525478-1.6692453877-.9393376157-4.206050363-2.5325967367-2.5325967367-4.9718994993,5.2221532183-10.9251871962,9.3701518885-17.4570398906,12.4088263167-3.3394671605,1.5535490372-6.8347496985,2.7746505419-10.3994230171,3.6971800437-3.5954240692.9304877275-7.6167279656,1.9063877179-11.3337145479,1.1833141528-2.6533215932-.5161564782-7.010546166-3.2268149961-5.0101284981-6.4684948959,1.2138257774-1.9670065345-1.8830580692-3.7678395307-3.0926348009-1.8077185814h0Z"/><path class="cls-21" d="m489.4648187751,114.832166076c0,2.7716166123-2.7462265547,5.0184558117-6.1338686888,5.0184558117s-6.1338686888-2.2468391994-6.1338686888-5.0184558117"/><path d="m112.9403870938,35.2472796903c4.3818059426,11.3436405916,15.471267511,19.0562066089,27.1821729802,21.3206398258,13.2622975138,2.5644120432,27.2806814476-1.0077886437,37.8545867856-9.3451595604,5.9650375704-4.7033455631,10.7172844764-10.6702136389,15.3860191246-16.6068756317l-2.993145005-.7902284506c.389203743,2.871004762.8941421859,5.8179592742,2.4194655903,8.3358590082,1.5246514622,2.5167905378,3.9751266975,4.3002560639,6.808699809,5.065754522,5.7528159673,1.5541408601,12.0426222808-.6204699404,17.1567168023-3.2028566546,2.0579395721-1.0391665205.2468462349-4.1300972221-1.8077185814-3.0926348009-4.1416410856,2.0913416577-9.3671411979,4.0362576634-14.0610978185,2.9263915784-5.2825178005-1.2490288735-6.4240030483-6.2756499129-7.0623725285-10.9846534888-.173248166-1.2779843937-2.2098577494-1.7862395821-2.993145005-.7902284506-3.8857630831,4.9410522865-7.8109169298,9.895881585-12.4739015926,14.1380366587-4.6269361871,4.2093599361-9.9943005581,7.4575096062-15.953498233,9.3927992636-11.4687627774,3.7245581028-24.3957384383,2.8191561858-34.6131869392-3.852076146-4.9717185853-3.246161678-9.2371639627-7.8783556516-11.3959021157-13.4669075089-.8218470374-2.127601618-4.2862278827-1.2031298211-3.4536932732.9521398356h0Z"/><path d="m744.1421081619,105.4059217788c-5.2040520636.4448709907-10.50866283-1.6378354209-13.8560683674-5.69767231-.6913802567-.8385273428-1.283866193-1.7864875852-1.7303203596-2.7783046283-.1112043885-.2470453096-.172801391-.5919617048-.3190599399-.8123006873l-.1037252732-.3168900714-2.3947937007.6081938542c.0273683342-.0147130928-.0460140029.2301982834-.025970111.2213826748-.3190969861.1403437089-.5564251775.2838219017-.9210274493.332651743-1.2951732323.1734577875-2.6914990186-.2823228249-3.9155941806-.653235816-1.3619214378-.4126757215-2.6867101459-.9284983896-3.9654783747-1.5527757409-10.3433039933-5.0494610947-16.6865880069-15.0524956115-24.7662208987-22.8114581624-4.7125660861-4.5255303391-10.1015485177-8.3348201682-16.4234780632-10.2055745972-2.2147717303-.6553844034-3.1608830421,2.800092801-.9521398356,3.4536932732,13.6590024682,4.0419051145,20.9052804701,17.299177983,31.014283073,26.2224514544,2.5404531452,2.242472284,5.2842488264,4.3025263054,8.2786833037,5.901345762,2.9964149365,1.5998768838,6.5694407102,3.1425327224,10.0142776308,3.2463063239,1.6431951955.0495002484,3.4956494855-.4280919791,4.5035446964-1.8200924718.8826667646-1.2190479306,1.0728607635-3.1509464077.060076946-4.3572635775-1.1028780305-1.3136275297-3.3368907878-.933041209-3.9686844424.6557521155-.5559091001,1.397963814.5769664683,3.3864477736,1.252327527,4.5940279296,3.5188276222,6.2918439765,11.1232830973,9.9580079329,18.2193678194,9.3513955851,2.2794634652-.1948610732,2.3001375287-3.7782610589,0-3.5816326531h0Z"/><path d="m671.8981004907,122.1289991972c-13.4491055978,2.969994323-27.7559297516.8325835882-40.1917889119-4.9134879813-12.0713241421-5.5776357359-22.3500148921-14.5277139344-30.2217493869-25.1906939558-4.4457467192-6.0221681103-8.1680089985-12.5510270297-11.2358438058-19.3743439606-.3997016806-.8889954693-1.6740481008-1.0841414227-2.4501766911-.6424581098-.9134135327.5198101452-1.0367270973,1.5732643321-.6424581098,2.4501766911,5.6206110882,12.5010677592,13.5321678694,24.1239859475,23.7938039502,33.2788851087,10.5938878194,9.4513169195,23.6586421386,16.1177445502,37.723971906,18.4009410677,8.0364287307,1.3045372127,16.2153950589,1.2027156849,24.1763808848-.5553255868,2.2497148299-.4968092655,1.2976583882-3.9505209548-.9521398356-3.4536932732h0Z"/><path d="m590.3386298948,76.5499662578c-11.1691272804-1.3679191284-15.9315750768-15.0559169306-11.879080311-24.531841822.482741393-1.1287913855,1.1166147699-2.2353609433,1.8724608229-3.2037420104.17740427-.2272882628,1.3494962841-1.2499024826,1.3231977982-1.4374881-.0559832063-.3993250549.3409325087.7630031394-.1727705616-.0773256729.2833925808.4635809373-.7911855936-.5104189027-.3251008338-.3029074229-.551086775-.2453563.4393157954-.298890669-.0919411278-.0805176262-.1919675361.078908214-.4305464524.5180550936-.6308173405.676492139-1.4402133416,1.1393725203-3.6405979869,1.5242415436-5.4268207723,1.5907612661-1.968256338.0732987321-3.8896564124-.2844231937-5.7460721833-.9266351061-8.3671317679-2.8945410714-13.3416853549-11.0562425003-16.9205940411-18.6432049324-2.2747308074-4.8222233904-4.1326867219-9.8245166067-6.4961100046-14.6070346343-1.8786217561-3.8014952639-3.9001878939-7.884056489-6.8195653251-11.0151311157-1.5752510982-1.6894796443-4.1038380798.8474176128-2.5325967367,2.5325967367,2.996066501,3.2133247661,4.9867688217,7.6148094935,6.863803488,11.5319200041,2.385216362,4.9776150908,4.2753120851,10.1742841707,6.7398200405,15.1159514603,4.3789734411,8.7804260353,11.2858324355,17.8620518941,21.6713879654,19.3812194484,4.0496011406.5923633688,10.4193087894.0572094366,12.5418152756-4.1127226799,1.0836777463-2.1290218274-.5433182963-4.7149639911-2.9446751806-4.6510287627-1.8458720326.0491456521-3.2262577626,1.9854374767-4.2178127198,3.338999943-3.8424973039,5.2453573947-4.5060340413,12.5046462504-2.8074724462,18.6537258706,2.1148124399,7.6559779241,8.0192074373,13.3722415109,15.9989441939,14.3495456704.9681539762.1185729476,1.7816104716-.9081196035,1.7908163265-1.7908163265.0111068731-1.0649744722-.8347075806-1.6737185973-1.7908163265-1.7908163265h0Z"/><path d="m671.8251351476,60.0118504761c2.143431808,2.2529524966,1.8066533991,5.5869489318.4050070954,8.1499169938-1.8109245526,3.3113502164-4.9878894981,5.1224212783-8.7351962714,5.3053032803-4.7329701686.2309859086-9.3106051648-1.7054728014-13.2864194698-4.1089527592-3.9079567933-2.3624583817-7.4818105471-5.2441689379-10.7754164123-8.3990589361-13.4064954832-12.8418579032-21.4580720604-29.7729782429-32.9318674558-44.1456393433-4.1258109682-5.168201172-8.8654025904-9.4319895082-14.3759702962-13.0725072825-2.0660639985-1.3649306408-3.9899303965,1.9563060649-1.9364734661,3.3129079349,5.042151598,3.3310619692,9.3350465325,7.2080398221,13.1887068951,11.9619506335,6.1191120238,7.5485927841,11.0794349442,15.9778084504,16.5541461675,23.9875018802,5.4945483145,8.0387157859,11.4179859768,15.9303378457,18.7064190523,22.4446617208,7.177818765,6.4154579823,16.8549444627,13.2396126966,27.0168597656,11.6219575232,4.5110743988-.7181090002,8.378597773-3.620511095,10.2941958368-7.7833388615,1.839969566-3.9984778348,1.7375438673-8.6782513415-1.4110103216-11.9876839037-1.7053679923-1.7925053931-4.4154674945.923504583-2.7129811197,2.7129811197h0Z"/><path d="m673.1803908307,60.3754278604c2.4687556869,0,2.4728447647-3.8367346939,0-3.8367346939-2.4687556869,0-2.4728447647,3.8367346939,0,3.8367346939h0Z"/><path d="m687.9996636054,47.4539354142c5.8781852824,4.5421045686,13.1174403311,7.4976332864,20.6256908483,5.9192380172,3.1616517356-.6646469948,6.3376955925-2.2069945927,8.1753100788-4.9571104096,1.0134405548-1.5166831346,1.4634326594-3.3850508278,1.4552154994-5.1961601508-.0039730632-.8756859717-.1231367543-1.7603644796-.2873551361-2.619571231-.0351204158-.1837534755-.0551110579-.403083066-.1216564641-.5781864645l-.0940543316-.3819551396-1.6888753255,2.22486899c.1920584999-.0420828336-.5300915296-.007807044-.4038113724-.0552901454.0379058321-.0142531218.1469921818.0483615929.1828084634.0575882329.3706553202.0954845956-.4306815294-.2130614326-.1160341869-.0512587759.2502892476.1287074758.5123662757.2382504561.7652730197.3623441476.8152307718.4000090874,1.6204655596.8206964725,2.4270030232,1.2378302833,2.6097681848,1.3497482726,5.2203459427,2.6975154153,7.8529781191,4.0023440061,7.7495772497,3.8409733245,15.6703806071,7.3813709659,23.8198791058,10.2905622851,8.7003316466,3.1058266105,17.8448009876,5.6355184362,27.1224143015,6.0155032812,7.947905234.3255237567,16.4243241851-1.2442858796,22.2953100073-7.0076265747.6694005847-.6571270563,1.2864167648-1.3620451335,1.8624050744-2.1020345395.5984361171-.7688287756.7356396537-1.7806708714,0-2.5325967367-.6120369651-.625586756-1.939523893-.7619384179-2.5325967367,0-4.6846382462,6.0184948475-11.8923620453,8.0532749843-19.3091927288,8.1017449174-8.8303631612.0577075479-17.5994314001-2.2360719976-25.9114456387-5.0353187266-8.109438523-2.731025069-15.9692417304-6.1535125156-23.6575751397-9.8982733896-4.3433000215-2.1154935821-8.5555766309-4.589548364-12.9715910542-6.5468655129-.9031202274-.4002914255-1.8913811936-.7115998969-2.7200033621.1112840879-.9731338144.966394892-.2735753927,2.2846481134-.1487464086,3.4286611735.1794555393,1.6446459297-.0628682045,3.3430011406-1.1304398252,4.6628805812-1.914932977,2.3675045473-5.4645828096,3.2009221711-8.3595330281,3.3211538581-3.554053824.1476052626-7.0615705225-.8336659972-10.1929378194-2.4795229061-1.543001193-.8110064816-3.0262185613-1.7607874452-4.4058422462-2.8268298955-.7709300092-.5957016577-1.7789513311-.7373219499-2.5325967367,0-.6236426452.6101349624-.7641357962,1.942145003,0,2.5325967367h0Z"/><path d="m694.2776745959,37.7844113374c.2333754062,2.7004197657-2.1051593858,4.6902295906-4.4417934517,5.5649296629-3.1496403605,1.1790424059-6.7178289056.8366580766-9.9066536939.0129126692-5.983873798-1.5457696445-11.3222136184-4.9036796187-15.8511883585-9.0457117577-4.6252077518-4.2300432783-8.4914238632-9.2476716765-12.6017063389-13.961626025-2.7581005518-3.1631792138-5.5363236715-6.3152416017-8.4549368391-9.3322946607-2.3137459447-2.3917846865-4.747142931-4.6520222212-7.268917763-6.8223973461-1.738811757-1.496514969-4.2832760807,1.0258678837-2.5325967367,2.5325967367,5.908168675,5.0848878988,11.0981528366,10.8367534402,16.2076148493,16.7101706311,4.3744943864,5.0285588711,8.4909739757,10.376379504,13.5926648267,14.7064071662,5.0687465299,4.3020663792,11.0943813047,7.8062572549,17.6911598979,9.0560249956,3.9648174039.7511394871,8.2834298.7297211964,11.9243133913-1.2129052408,2.9768781719-1.5883403278,5.529728737-4.6666911905,5.2236728696-8.2081068313-.1969561109-2.2790069587-3.7803911516-2.2998626411-3.5816326531,0h0Z"/><path d="m843.5416491426,68.2677101365c3.2758116719,2.6643278804,2.3024148101,7.6635929343.1369398913,10.7285820223-1.9917978049,2.8191684348-5.2214276387,4.5479345395-8.5440992996,5.2498781531-3.4099646501.7203850253-7.1579115582.2869796957-10.1751418225-1.5097889702-1.6253642301-.967908732-3.1593846727-2.3797513981-3.9167928655-4.143942717-.2759461946-.6427470491-.7688598291-2.2833920878-.0029791383-2.8154852303.3481860307-.241901123.7742571863-.1379997233.8331448462.3778670419.0625851186.5482571858-1.0033304026,1.4125049261-1.3352582228,1.7598292496-.7795619538.815722009-1.6261148686,1.5774891098-2.5423960543,2.2369748683-1.7949595216,1.2919071787-3.7789830818,2.321591561-5.8628956009,3.0590139245-4.2934239213,1.519289695-8.8810325217,1.99472853-13.4101114654,1.6387609006-10.9609213159-.8614849125-21.0180212294-6.4619534596-31.0884322552-10.3804556045-11.0583189923-4.3029074562-23.8385255166-6.9802456817-34.9956443698-1.5322766711-2.0709281548,1.0112245427-.2574661576,4.1010548605,1.8077185814,3.0926348009,11.5444439162-5.6370980293,24.9129610496-1.1887347031,35.982910363,3.405505644,11.2434676699,4.6662537785,22.9209391904,10.3585394957,35.4445357009,8.8498656718,5.1763181346-.6235729223,10.3028727743-2.2783580916,14.4918673666-5.4584207811,1.8394463806-1.3964102066,4.5216145158-3.4756182185,5.0057592905-5.8611706995.494803761-2.4380730753-1.5499746029-4.9938429389-4.0704267347-4.944937629-3.1135413963.0604132508-4.5275970487,3.3305446084-4.1063746427,6.0378411067.4059973839,2.6094416635,2.1459278235,4.8865894004,4.164236554,6.5069060575,3.4879180372,2.8001324123,8.0866679085,3.9546998663,12.5096609389,3.477529202,5.0007356503-.5394999124,9.7426201643-2.8810471488,12.7343896038-7.0018596837,3.1392433572-4.3239406103,4.0477436996-11.5838297175-.5280139282-15.3054473936-1.773255631-1.4422484837-4.3222218681,1.0770343874-2.5325967367,2.5325967367h0Z"/><path d="m854.1864301885,37.0650938041c6.9959275652,13.6574873707,17.5069395557,25.2710440864,29.8149819022,34.3521999961,6.6391533491,4.8985196,13.8137904461,8.8991676957,21.2719763348,12.4032205054,6.9557278869,3.2679847633,14.138657234,6.1006672382,21.6387949094,7.8408178491,8.34590217,1.9363813557,16.9222017527,2.5306456174,25.4639662387,2.7857081377,2.3055190288.0688442646,2.3033971329-3.5128517497,0-3.5816326531-7.395721828-.2208409576-14.8121973668-.6664798517-22.0793735498-2.1307926471-7.0494199472-1.4204356092-13.8537773763-3.7899181828-20.4112414728-6.7204831799-14.4779324427-6.4702637212-27.8044979229-14.9947758115-38.5934139014-26.7238491091-5.5416458459-6.0245506078-10.2799204767-12.7450609232-14.0130556601-20.0329074805-1.051160995-2.0520821406-4.1425879461-.2420055884-3.0926348009,1.8077185814h0Z"/><path d="m583.5489892053,120.3463015582c-8.3929227093,5.1214810103-18.8024243942.6274038284-23.1982788675-7.5585133805-1.0908816422-2.0314291253-4.1840583951-.2247197617-3.0926348009,1.8077185814,5.3037602466,9.8766104607,18.0853514203,14.9536762203,28.0986322497,8.8434296,1.9646387968-1.1988505838.1670823578-4.2976864687-1.8077185814-3.0926348009h0Z"/><path d="m615.2024108586,111.5553889577c.9874248272.8602098553-.141115141,2.9237054721-.591961999,3.8559273467-.7543977742,1.5598780267-1.7002416321,3.0321576206-2.8491145815,4.3307324659-2.2151003124,2.5037351146-5.0469263428,4.4496473133-8.2633922672,5.410080104-6.6240654459,1.9779378397-15.9195426816-.1463291667-18.8421385387-7.0508968401-.3799576186-.8976414185-1.6873344595-1.0765803523-2.4501766911-.6424581098-.9279719227.5280951099-1.017301015,1.5646186691-.6424581098,2.4501766911,2.8196486016,6.6613570731,11.1230955379,9.8802402431,17.9380228717,9.5281240545,7.0339841946-.3634344996,13.3723679643-4.3017504517,17.1026496935-10.234701622,1.6828444703-2.676536196,4.1565462759-7.5439760206,1.1311663588-10.1795808271-1.7309836596-1.5079722144-4.2744992687,1.0151123838-2.5325967367,2.5325967367h0Z"/><path d="m889.8933356104,75.1528280069c1.6229317533,2.596412331-1.2714013049,5.3171966408-3.5961188842,6.0811147251-3.6541978085,1.2007943737-7.6818781289.4340212401-11.3319962699-.3970607388-7.3022926805-1.6626321716-14.2815052791-4.591074692-20.5333557897-8.7215685525-3.3971079493-2.244412835-6.5203825472-4.8527442119-9.3463400624-7.7833110532-1.6029880892-1.6623263853-4.1337942285.8721272319-2.5325967367,2.5325967367,5.9313360908,6.1508981572,13.1746600913,10.8521691588,21.0518142529,14.1141073471,4.0070004576,1.6593032896,8.1839679636,2.9185229431,12.4427197577,3.7402306699,4.3128728495.8321501501,9.2107185063,1.3120800182,13.2224759666-.885002922,3.6132831233-1.9788541025,6.1057923469-6.6656191973,3.7160325665-10.4888247936-1.2190295538-1.9502381163-4.3190856666-.1543923605-3.0926348009,1.8077185814h0Z"/><path d="m704.9816180889,89.590622527c-1.0905502817,5.1032620039-3.2485128492,9.944757177-6.9251890342,13.7120209212-3.0217713139,3.0962230398-6.8439692841,5.2847718715-10.9963429269,6.4685740559-3.6026925474,1.0270933385-7.5581620202,1.3465626497-11.1914015259.8352411398-5.639396407-.7936566476-10.944062258-3.5402042387-15.5386136241-6.7994359263-5.9543883787-4.2238577257-10.970565832-9.6417523298-15.9095917038-14.9730091128-1.5963735482-1.7231489626-3.9530436179.7788538669-2.5325967367,2.5325967367,1.6896808492,2.0861503382.199166734,5.0977482179-1.4713342863,6.6693469162-2.6268193788,2.4712980516-6.5472730096,1.9982714303-9.6377263934.726464181-3.7104498645-1.5269529903-6.9508742489-4.2283819075-9.804623087-6.9966871645-2.7336216751-2.6517747998-5.1547641506-5.6024906799-7.2045042732-8.8126324113-2.3708865419-3.7130959893-4.2256098624-7.7045558062-5.5257358027-11.9130025468-.6782588154-2.195492-4.1367386228-1.2588459512-3.4536932732.9521398356,2.7418481815,8.8752340717,7.8258160067,16.989867104,14.6767360871,23.273945761,5.90382538,5.41534606,16.8492902123,12.4734067806,23.9183419451,4.8631996457,2.9250879266-3.149011473,3.8702635494-7.7950041989,1.0351358203-11.2953709536l-2.5325967367,2.5325967367c8.7624262249,9.4582910597,18.7704299866,20.0292225061,32.0315360542,22.5261282345,8.9896551664,1.6926432356,18.7289362634-.8023492646,25.5421613903-6.9719541325,4.7378453281-4.2902785473,7.6500643411-10.1838833781,8.9737313803-16.378022081.4803726103-2.2479177082-2.9714972589-3.2085902164-3.4536932732-.9521398356h0Z"/><path class="cls-48" d="m901.9489633789,19.4253320329c-.6642512567-2.7996833836-4.8418724564-2.7996910949-5.5061244825-.0000000002l-.1630786689.6873992735c-.5736389207,2.4176609532-2.5284462228,4.3185311447-5.0496746556,4.9102111942l-1.4696432242.3449124856c-2.8653717889.672499188-2.8653717891,4.5621808461-.0000000002,5.2346785655l1.4696432241.3449132201c2.5212284328.5916807841,4.4760357347,2.4925495069,5.0496346589,4.9102115618l.1631186651.6873985391c.6642520258,2.7996914619,4.8418732256,2.7996914621,5.5061244825.0000000002l.1631194343-.6873985391c.5735981553-2.4176620548,2.5284054574-4.3185307775,5.049633121-4.9102115614l1.4696439933-.34491322c2.8653707313-.6724977192,2.8653586173-4.5621793773.0000000002-5.2346785655l-1.4696439933-.3449124857c-2.5212276636-.5916800497-4.4760349655-2.4925502413-5.049673886-4.9102111946l-.1630786688-.6873992735Z"/><path class="cls-48" d="m658.372283627,24.7160471937c-.4551239931-1.9404473455-3.3174981669-1.9404526901-3.7726226871-.0000000002l-.1117363561.4764331936c-.3930392808,1.6756694012-1.732411538,2.9931535634-3.4598776742,3.4032442144l-1.0069531459.2390572166c-1.9632623004.4661060146-1.9632623006,3.162026022-.0000000002,3.6281310188l1.0069531459.2390577257c1.7274661362.4100911602,3.0668383933,1.7275743045,3.4598502697,3.4032444692l.1117637603.4764326846c.4551245201,1.9404529445,3.3174986939,1.9404529446,3.7726226871.0000000002l.1117642873-.4764326846c.3930113496-1.6756701647,1.7323836068-2.9931533089,3.459849216-3.4032444689l1.0069536729-.2390577256c1.9632615758-.4661049966,1.9632532756-3.162025004.0000000002-3.6281310188l-1.0069536729-.2390572167c-1.7274656092-.4100906512-3.0668378663-1.7275748135-3.4598771469-3.4032442147l-.1117363561-.4764331936Z"/><path class="cls-48" d="m590.0162216941,70.4623883038c-.4753583066-1.9297755025-3.4649904966-1.9297808178-3.9403493539-.0000000002l-.116704032.4738129627c-.4105133761,1.6664537527-1.8094326548,2.9766921712-3.6137000407,3.3845274541l-1.0517211783.237742478c-2.0505467889.4635425799-2.0505467891,3.1446358851-.0000000002,3.6081774527l1.0517211783.2377429843c1.8042673858.4078357893,3.2031866644,1.7180731955,3.6136714178,3.3845277076l.1167326545.4738124565c.475358857,1.9297810708,3.4649910471,1.9297810709,3.9403493539.0000000002l.1167332049-.4738124565c.4104842031-1.666454512,1.8094034819-2.9766919181,3.6136703173-3.3845277072l1.0517217288-.2377429842c2.0505460321-.4635415674,2.0505373629-3.1446348726.0000000002-3.6081774527l-1.0517217287-.2377424781c-1.8042668354-.4078352831-3.203186114-1.7180737017-3.6136994899-3.3845274545l-.1167040319-.4738129627Z"/><path d="m853.3940372153,35.5268141484c-4.0598985335,10.3785241283-14.8225144904,16.9736510576-25.4166503022,18.8937758757-12.3804751983,2.2438883275-25.7319387439-1.3565829782-35.4415209085-9.3006546604-5.5758379187-4.5619734571-10.1109911304-10.1961923654-14.5788701157-15.8049734861-.7887050688-.9901060692-2.8170247441-.4923684422-2.993145005.7902284506-.3812216338,2.776248914-.7782341188,5.8828591833-2.5498353157,8.1711468351-1.633429266,2.1098179579-4.2575012233,3.0108058793-6.8478315121,3.0859523624-6.2925053126.1825480119-12.1683079637-3.1124436834-17.4781183715-6.0961419302-5.2790041536-2.9663875407-10.3435520746-6.318285686-15.0855305013-10.0864235377-3.9577370321-3.1449528816-7.6979280199-6.5438477848-11.4663501224-9.9096227908-4.4435600481-3.9687760396-8.9910754695-7.8084434451-13.8709841254-11.2352869269-1.8902799117-1.3274210341-3.6819447166,1.7764872933-1.8077185814,3.0926348009,8.9257823934,6.2679983114,16.4724678188,14.1732833358,25.0203424181,20.9077749174,5.2267985509,4.1179629428,10.766889347,7.7907082173,16.6026351767,10.9895617441,5.6116806284,3.0760325917,11.8458669855,6.2485600719,18.4430051121,5.9048926024,3.4163167102-.1779676121,6.7904964028-1.4350432184,9.0231472437-4.1207445049,2.2962577301-2.7622153123,2.9953247674-6.2879921893,3.4709318522-9.7516037363l-2.993145005.7902284506c4.2908406228,5.3865348539,8.6383210873,10.7972563852,13.9211539101,15.2583428731,5.1505592608,4.3493881207,11.0470170471,7.6112956298,17.5228475463,9.5188800596,12.5124183676,3.6857812231,26.6675464067,2.3707693439,37.5807650831-5.0695773584,5.5039190129-3.7524278485,9.9588787427-8.8395572502,12.3985647969-15.0762502046.8400499876-2.1474623056-2.6219525528-3.0783607409-3.4536932732-.9521398356h0Z"/><path class="cls-48" d="m558.2487188896,148.2336196472c.3718481106-1.5659247135,2.710482075-1.5659290265,3.0823306162,0l.0912915019.3844775866c.3211232898,1.3522511359,1.4154251739,2.4154497917,2.8268098263,2.7463895035l.8227068456.1929171664c1.6040362363.3761436399,1.6040362363,2.5517284477,0,2.9278712661l-.8227068456.1929175772c-1.4113846524.3309401226-2.5056865366,1.3941379568-2.8267874364,2.7463897089l-.0913138919.3844771758c-.3718485412,1.5659292318-2.7104825056,1.5659292318-3.0823306162,0l-.0913143224-.3844771758c-.3211004693-1.352251752-1.4154023534-2.4154495863-2.8267865753-2.7463897089l-.8227072762-.1929175772c-1.6040356443-.3761428184-1.6040288627-2.5517276262,0-2.9278712661l.8227072762-.1929171664c1.4113842218-.3309397118,2.505686106-1.3941383676,2.8268093958-2.7463895035l.0912915019-.3844775866Z"/><path class="cls-48" d="m148.9934720518,20.8065242966c.3044974171-1.2521182788,2.219548163-1.2521217275,2.5240459326,0l.0747564012.3074294759c.2629600891,1.0812642206,1.159057414,1.9314011777,2.3148061428,2.1960216021l.673694722.1542571672c1.3135064476.3007656262,1.3135064476,2.0403700156,0,2.3411349848l-.673694722.1542574957c-1.1557487288.2646207529-2.0518460537,1.1147570531-2.3147878082,2.1960217663l-.0747747358.3074291474c-.3044977697,1.2521218917-2.2195485156,1.2521218917-2.5240459326,0l-.0747750884-.3074291474c-.2629414019-1.0812647132-1.1590387269-1.9314010134-2.314787103-2.1960217663l-.6736950746-.1542574957c-1.3135059628-.3007649693-1.3135004096-2.0403693587,0-2.3411349848l.6736950746-.1542571672c1.1557483762-.2646204245,2.0518457011-1.1147573815,2.3148057902-2.1960216021l.0747564012-.3074294759Z"/><path class="cls-21" d="m471.0106419851,88.2033429227c-.2015102099,4.5109258231-4.5265856565,7.9359751809-9.6603263897,7.6500618557s-9.1321035771-4.1745197736-8.9305933672-8.6854455967"/><line class="cls-21" x1="452.3218692711" y1="86.7390656335" x2="448.3425569581" y2="89.8574921032"/><line class="cls-21" x1="454.3563238516" y1="92.7516640325" x2="451.6900160167" y2="95.2389408271"/><path class="cls-21" d="m495.6847935962,87.5247618995c-.0000000002,4.5165336895,3.9282771912,8.1779076667,8.774052681,8.177907667s8.7740526814-3.6613739766,8.7740526816-8.177907666"/><line class="cls-21" x1="513.3430736345" y1="87.1018438359" x2="516.9586893502" y2="90.4377429672"/><line class="cls-21" x1="511.1746057237" y1="92.9938126511" x2="513.5804895319" y2="95.626311423"/><ellipse class="cls-46" cx="320.569736276" cy="141.658649782" rx="22.0154209067" ry="7.4757694044"/><path class="cls-46" d="m135.6706863009,184.4638843575c3.1683265577-2.2203940045,4.9461417869-4.7347901805,4.9461417869-7.3911440458,0-8.9424061874-20.1421670399-16.1916544262-44.9921769727-16.1916544262s-44.9921769727,7.2492482387-44.9921769727,16.1916544262c0,2.8996745426,2.1155316217,5.6168585772,5.820167087,7.9690615957-3.7741670938-.6995778886-7.9456404586-1.0848562552-12.3455315881-1.0848562552-16.8050125962,0-30.4318175053,5.6574532782-30.4318175053,12.643083489,0,6.9855683287,13.6268049091,12.6531702821,30.4318175053,12.6531702821,10.0115239516,0,18.8907795889-2.0074574707,24.432820162-5.1099198719,6.088351851,6.904502691,26.7569466691,11.9839765371,51.3189489587,11.9839765371,29.3491973199,0,53.1464123167-7.2491863566,53.1464123167-16.2017412193,0-7.2694837071-15.7025695315-13.4135783401-37.3346047778-15.4616305118Z"/><path class="cls-46" d="m254.4107430538,168.1894622522c0,2.6196269795-3.5016172854,4.8133843585-8.1940312712,5.3680122626v.0049568924c-1.0021531453,2.6047865271-5.3054785549,4.5658117611-10.4576819725,4.5658117611-5.8949761721,0-10.6757932124-2.5651918375-10.6757932124-5.7245760437,0-2.7781266377,3.6843601076-5.0956854279,8.5712824014-5.6156453099,1.1848959674-2.3621405972,5.3054785549-4.110200806,10.2042023147-4.110200806,5.8301400694,0,10.5520217401,2.4661144386,10.5520217401,5.5116412435Z"/><path class="cls-46" d="m222.816288485,103.0202070631c.01724748,3.4448337864-5.9686808159,6.2722857787-13.3720762088,6.3092854174-1.442046381.0072068547-2.833159414-.0937459467-4.1345591001-.2799095309-1.3784571409,2.4268045847-6.5453526787,4.2482545196-12.7127532225,4.2790770786-7.2231199488.0360986836-13.0937903434-2.4007155672-13.1089924862-5.4370347854-.0085659242-1.7108693599,1.8250158197-3.2382305712,4.7169034179-4.2699734653-3.1474055879-1.1402755524-5.1648888578-2.9104390016-5.1749210191-4.9141594499-.0175946103-3.5141660229,6.1870417627-6.3889493702,13.8736597799-6.4273644587,6.5020967583-.0324952563,11.9843966516,1.9824007684,13.5047350251,4.7414820967.952232218-.1126170017,1.9562079117-.1715870832,2.9734203561-.1766707632,7.4033953929-.0369996387,13.4173362131,2.730481111,13.4345834576,6.1752678607Z"/><ellipse class="cls-46" cx="177.6247432574" cy="153.7189840278" rx="39.219273593" ry="11.6885502241"/><ellipse class="cls-46" cx="213.0306857117" cy="134.0397383774" rx="17.4412804631" ry="6.7653197806"/><path class="cls-46" d="m101.0622437411,111.52728395c-2.4020247711,0-4.7271455149.1584361972-6.9239711412.4509109048,1.555715255-1.8280413059,2.4190855695-3.8754386425,2.4190855695-6.0325511861,0-7.7752749717-11.2664399986-14.0759031787-25.1571647114-14.0759031787-13.8992811989,0-25.1657211975,6.300628207-25.1657211975,14.0759031787,0,2.7298631155,1.3933507143,5.2769667303,3.7953754854,7.4340048907-10.206479199,1.5842875885-17.6091439973,6.2885037468-17.6091439973,11.8457463414,0,6.8734531621,11.2664399986,12.4306957567,25.1657211975,12.4306957567,10.3774002258,0,19.2845978836-3.0955308832,23.1312601118-7.5315956375,4.5732331129,2.9248958427,11.9844543972,4.8260558255,20.3445586832,4.8260558255,13.8992811989,0,25.1657211975-5.2403702002,25.1657211975-11.7116334477s-11.2664399986-11.7116334477-25.1657211975-11.7116334477Z"/><path class="cls-46" d="m274.9793556148,145.849756482c-.0383038094,2.8304813169-5.9317249547,5.046845637-13.153947514,4.9491100911-2.5504583505-.0345143669-4.9277836517-.3543319157-6.933615913-.8760401354-2.6741253806,1.0639453296-6.4789005194,1.7038054146-10.6913749159,1.6467996271-8.0622680897-.1091035573-14.5613985299-2.7202329746-14.5193391018-5.8282378203.0373478186-2.7598378443,5.2116042886-4.9859035414,12.0111977289-5.3732974797-.6745050991-.6298508437-1.0459751208-1.3211751535-1.0362114292-2.0426685797.0383038094-2.8304813169,5.9257118289-5.0468962098,13.1478975005-4.9491611631,7.2282721561.0978174127,13.0535474411,2.4727355208,13.0152436317,5.3032168377-.0103100316.7618655241-.4431397307,1.4776337615-1.2134588674,2.1181784752,5.4430259683.6943813932,9.4052215875,2.7160615485,9.3736088802,5.0521001469Z"/><path class="cls-46" d="m323.610254884,173.9943956211c0,3.3191526605-9.3527740956,6.0084626192-20.8827093199,6.0084626192-11.5427517675,0-20.8955258631-2.6893099587-20.8955258631-6.0084626192,0-.256595101.0582140634-.5086821992.1691030878-.7562547419.1895077614-.4230979451-.1873716641-.85941494-.7970766079-.916977402-9.8261397672-.9276893721-16.9954023784-3.8306955691-16.9954023784-7.2644078687,0-4.1889238163,10.6281380852-7.5780657792,23.729711745-7.5780657792,13.1144688321,0,23.7426069172,3.3891419628,23.7426069172,7.5780657792,0,.8174602043-.4096888568,1.6100883259-1.1658606896,2.349886105-.42222668.4130838343-.0908335965,1.0040651836.6087893506,1.0925287072,7.3547451033.929967592,12.4863637584,3.0445300502,12.4863637584,5.4952252004Z"/><ellipse class="cls-46" cx="268.3194953104" cy="195.9871819334" rx="34.2014657428" ry="10.3418429445"/><path class="cls-46" d="m219.1618103339,186.496001822c-.0372612021,2.6887395359-5.7702668709,4.7941151615-12.7959047565,4.7012739106-2.4810363659-.0327859938-4.793652263-.3365880654-6.7448869434-.8321707453-2.6013372519,1.0106662265-6.3025486368,1.6184840905-10.4003619441,1.5643329771-7.842817868-.1036399874-14.1650457789-2.5840120908-14.1241311839-5.5363776324.0363312328-2.6216336706,5.0697474681-4.7362248583,11.6842599521-5.104219302-.6561454648-.5983098546-1.0175042898-1.2550147736-1.0080063601-1.9403780326.0372612021-2.6887395359,5.7644174189-4.7941632018,12.7900194208-4.701322425,7.0315228159.0929190182,12.6982375148,2.3489085467,12.6609763127,5.0376480826-.0100293986.7237136466-.4310777264,1.4036384167-1.1804292267,2.0121066252,5.2948699851.659608913,9.149216957,2.5800495569,9.1184647291,4.7991065418Z"/><path class="cls-46" d="m396.5361383553,183.4424861298c0,2.6012907469-7.0856828945,4.7089603322-15.8207880044,4.7089603322-8.7448149521,0-15.8304978466-2.1076695853-15.8304978466-4.7089603322,0-.2010990545.0441031067-.3986650911.1281128833-.5926929743.1435715104-.3315908854-.1419531982-.6735418222-.6038670483-.7186547516-7.4443058023-.7270499512-12.8757554376-3.0021978371-12.8757554376-5.6932714171,0-3.2829489565,8.0519015493-5.9390918127,17.977683507-5.9390918127,9.9355513695,0,17.9874529188,2.6561428563,17.9874529188,5.9390918127,0,.6406610009-.3103812083,1.2618605687-.8832587061,1.8416558702-.3198798916.3237426132-.068815739.7869073039.4612201945.8562380546,5.5719715925.7288354407,9.4596975392,2.3860631488,9.4596975392,4.3067252183Z"/><path class="cls-46" d="m363.6323529756,201.170123938c.0133596896,2.621416735-4.6232680524,4.7730241651-10.3578486833,4.801179797-1.1169917053.0054842035-2.1945310547-.0713378957-3.2025795294-.2130028832-1.0677362482,1.8467265898-5.0699511106,3.2327961762-9.8471450635,3.256251233-5.5949414499.0274700317-10.142291814-1.8268736183-10.1540672101-4.1374228364-.0066350614-1.3019210359,1.4136352059-2.4641977923,3.6536564026-3.2493236522-2.4379423446-.8677160063-4.0006605122-2.2147580923-4.0084313032-3.7395301542-.0136285726-2.6741765186,4.7924078038-4.8618017115,10.7463692579-4.8910344588,5.0364455972-.02472793,9.2829688629,1.5085484154,10.4606045998,3.6081277902.7375875721-.0856982111,1.5152550155-.1305727009,2.303175486-.1344412311,5.7345806309-.0281556319,10.3929065359,2.0778154544,10.4062660432,4.6991963958Z"/><ellipse class="cls-46" cx="333.6100363097" cy="164.8165567482" rx="8.967473257" ry="2.8939038377"/><path class="cls-46" d="m9.9171925762,150.5537271548c.1067687895-3.2283169442,6.7540085273-5.6031158434,14.8364998118-5.303048343,2.8542539668.1059659483,5.5082594294.5329161815,7.7418511489,1.1805058995,3.0174841339-1.1440460726,7.291067134-1.7747307678,12.0053067349-1.5997116996,9.0225981037.3349695489,16.2389125747,3.4837078991,16.1216753002,7.0285554295-.104104042,3.147744245-5.9465157378,5.552387718-13.5668582439,5.816842169.740836976.7362116827,1.1410629467,1.5346471507,1.1138474412,2.3575494038-.1067687895,3.2283169442-6.7472784582,5.603330535-14.829728461,5.3032645673-8.0892614737-.3003188478-14.5565811398-3.1619687301-14.4498123503-6.3902856743.0287383843-.868948813.5294130347-1.6742736017,1.4061819974-2.3849640263-6.0773560391-.9343332617-10.4670812593-3.3443294293-10.3789633792-6.0087077259Z"/><path class="cls-46" d="m174.7552421577,122.9011937c.0133596896,2.621416735-4.6232680524,4.7730241651-10.3578486833,4.801179797-1.1169917053.0054842035-2.1945310547-.0713378957-3.2025795294-.2130028832-1.0677362482,1.8467265898-5.0699511106,3.2327961762-9.8471450635,3.256251233-5.5949414499.0274700317-10.142291814-1.8268736183-10.1540672101-4.1374228364-.0066350614-1.3019210359,1.4136352059-2.4641977923,3.6536564026-3.2493236522-2.4379423446-.8677160063-4.0006605122-2.2147580923-4.0084313032-3.7395301542-.0136285726-2.6741765186,4.7924078038-4.8618017115,10.7463692579-4.8910344588,5.0364455972-.02472793,9.2829688629,1.5085484154,10.4606045998,3.6081277902.7375875721-.0856982111,1.5152550155-.1305727009,2.303175486-.1344412311,5.7345806309-.0281556319,10.3929065359,2.0778154544,10.4062660432,4.6991963958Z"/><path class="cls-11" d="m133.9537645482,184.8138754867c3.1683265577-2.2203940045,4.9461417869-4.7347901805,4.9461417869-7.3911440458,0-8.9424061874-20.1421670399-16.1916544262-44.9921769727-16.1916544262s-44.9921769727,7.2492482387-44.9921769727,16.1916544262c0,2.8996745426,2.1155316217,5.6168585772,5.820167087,7.9690615957-3.7741670938-.6995778886-7.9456404586-1.0848562552-12.3455315881-1.0848562552-16.8050125962,0-30.4318175053,5.6574532782-30.4318175053,12.643083489,0,6.9855683287,13.6268049091,12.6531702821,30.4318175053,12.6531702821,10.0115239516,0,18.8907795889-2.0074574707,24.432820162-5.1099198719,6.088351851,6.904502691,26.7569466691,11.9839765371,51.3189489587,11.9839765371,29.3491973199,0,53.1464123167-7.2491863566,53.1464123167-16.2017412193,0-7.2694837071-15.7025695315-13.4135783401-37.3346047778-15.4616305118Z"/><ellipse class="cls-37" cx="88.0577327788" cy="189.2709089957" rx="15.6589683262" ry="4.6318863838"/><path class="cls-16" d="m99.4861698215,109.3574670491c-2.4020247711,0-4.7271455149.1584361972-6.9239711412.4509109048,1.555715255-1.8280413059,2.4190855695-3.8754386425,2.4190855695-6.0325511861,0-7.7752749717-11.2664399986-14.0759031787-25.1571647114-14.0759031787-13.8992811989,0-25.1657211975,6.300628207-25.1657211975,14.0759031787,0,2.7298631155,1.3933507143,5.2769667303,3.7953754854,7.4340048907-10.206479199,1.5842875885-17.6091439973,6.2885037468-17.6091439973,11.8457463414,0,6.8734531621,11.2664399986,12.4306957567,25.1657211975,12.4306957567,10.3774002258,0,19.2845978836-3.0955308832,23.1312601118-7.5315956375,4.5732331129,2.9248958427,11.9844543972,4.8260558255,20.3445586832,4.8260558255,13.8992811989,0,25.1657211975-5.2403702002,25.1657211975-11.7116334477s-11.2664399986-11.7116334477-25.1657211975-11.7116334477Z"/><ellipse class="cls-28" cx="68.9140173271" cy="117.9768439965" rx="10.4539411976" ry="3.3106863632"/><path class="cls-24" d="m252.6938213011,168.5394533814c0,2.6196269795-3.5016172854,4.8133843585-8.1940312712,5.3680122626v.0049568924c-1.0021531453,2.6047865271-5.3054785549,4.5658117611-10.4576819725,4.5658117611-5.8949761721,0-10.6757932124-2.5651918375-10.6757932124-5.7245760437,0-2.7781266377,3.6843601076-5.0956854279,8.5712824014-5.6156453099,1.1848959674-2.3621405972,5.3054785549-4.110200806,10.2042023147-4.110200806,5.8301400694,0,10.5520217401,2.4661144386,10.5520217401,5.5116412435Z"/><ellipse class="cls-22" cx="175.9078215048" cy="154.068975157" rx="39.219273593" ry="11.6885502241"/><ellipse class="cls-33" cx="167.7742048754" cy="154.8012367147" rx="15.3491822127" ry="4.2628637934"/><ellipse class="cls-9" cx="211.313763959" cy="134.3897295066" rx="17.4412804631" ry="6.7653197806"/><path class="cls-12" d="m273.2624338621,146.1997476112c-.0383038094,2.8304813169-5.9317249547,5.046845637-13.153947514,4.9491100911-2.5504583505-.0345143669-4.9277836517-.3543319157-6.933615913-.8760401354-2.6741253806,1.0639453296-6.4789005194,1.7038054146-10.6913749159,1.6467996271-8.0622680897-.1091035573-14.5613985299-2.7202329746-14.5193391018-5.8282378203.0373478186-2.7598378443,5.2116042886-4.9859035414,12.0111977289-5.3732974797-.6745050991-.6298508437-1.0459751208-1.3211751535-1.0362114292-2.0426685797.0383038094-2.8304813169,5.9257118289-5.0468962098,13.1478975005-4.9491611631,7.2282721561.0978174127,13.0535474411,2.4727355208,13.0152436317,5.3032168377-.0103100316.7618655241-.4431397307,1.4776337615-1.2134588674,2.1181784752,5.4430259683.6943813932,9.4052215875,2.7160615485,9.3736088802,5.0521001469Z"/><path class="cls-13" d="m222.057417393,101.9458684372c.01724748,3.4448337864-5.9686808159,6.2722857787-13.3720762088,6.3092854174-1.442046381.0072068547-2.833159414-.0937459467-4.1345591001-.2799095309-1.3784571409,2.4268045847-6.5453526787,4.2482545196-12.7127532225,4.2790770786-7.2231199488.0360986836-13.0937903434-2.4007155672-13.1089924862-5.4370347854-.0085659242-1.7108693599,1.8250158197-3.2382305712,4.7169034179-4.2699734653-3.1474055879-1.1402755524-5.1648888578-2.9104390016-5.1749210191-4.9141594499-.0175946103-3.5141660229,6.1870417627-6.3889493702,13.8736597799-6.4273644587,6.5020967583-.0324952563,11.9843966516,1.9824007684,13.5047350251,4.7414820967.952232218-.1126170017,1.9562079117-.1715870832,2.9734203561-.1766707632,7.4033953929-.0369996387,13.4173362131,2.730481111,13.4345834576,6.1752678607Z"/><path class="cls-29" d="m321.9006245383,174.3639028545c-.0026184453,3.3191516276-9.3575111994,6.0010824426-20.8874428359,5.9919865957-11.5427481757-.0091059577-20.8933977921-2.7057933866-20.8907793468-6.0249450142.0002024252-.2565950211.0586153394-.5086361164.1696996367-.7561211029.18984148-.4229483127-.1866936222-.8595624881-.7963529659-.9176059221-9.825404865-.9354408237-16.9923750937-3.8441018746-16.9896662735-7.2778131057.0033045988-4.1889225128,10.6341130359-7.5696789926,23.7356826188-7.5593432964,13.1144647512.0103458691,23.7399258701,3.4078712057,23.7366212713,7.5967937186-.0006448859.8174599499-.4109589113,1.6097646256-1.1677141277,2.3489656383-.4225524262.4127506155-.0916256649,1.0039932134.6079272765,1.0930086349,7.3540091728.9357693851,12.4839580746,3.0543794663,12.4820247465,5.5050738539Z"/><ellipse class="cls-39" cx="266.5925322876" cy="196.3130640137" rx="34.2014657428" ry="10.3418429445"/><ellipse class="cls-35" cx="267.499038663" cy="196.9616727044" rx="13.3853710569" ry="3.7717139422"/><ellipse class="cls-10" cx="321.747814289" cy="142.8149446125" rx="22.0154209067" ry="7.4757694044"/><path class="cls-44" d="m217.4448885812,186.8459929512c-.0372612021,2.6887395359-5.7702668709,4.7941151615-12.7959047565,4.7012739106-2.4810363659-.0327859938-4.793652263-.3365880654-6.7448869434-.8321707453-2.6013372519,1.0106662265-6.3025486368,1.6184840905-10.4003619441,1.5643329771-7.842817868-.1036399874-14.1650457789-2.5840120908-14.1241311839-5.5363776324.0363312328-2.6216336706,5.0697474681-4.7362248583,11.6842599521-5.104219302-.6561454648-.5983098546-1.0175042898-1.2550147736-1.0080063601-1.9403780326.0372612021-2.6887395359,5.7644174189-4.7941632018,12.7900194208-4.701322425,7.0315228159.0929190182,12.6982375148,2.3489085467,12.6609763127,5.0376480826-.0100293986.7237136466-.4310777264,1.4036384167-1.1804292267,2.0121066252,5.2948699851.659608913,9.149216957,2.5800495569,9.1184647291,4.7991065418Z"/><path class="cls-4" d="m394.8192166026,183.792477259c0,2.6012907469-7.0856828945,4.7089603322-15.8207880044,4.7089603322-8.7448149521,0-15.8304978466-2.1076695853-15.8304978466-4.7089603322,0-.2010990545.0441031067-.3986650911.1281128833-.5926929743.1435715104-.3315908854-.1419531982-.6735418222-.6038670483-.7186547516-7.4443058023-.7270499512-12.8757554376-3.0021978371-12.8757554376-5.6932714171,0-3.2829489565,8.0519015493-5.9390918127,17.977683507-5.9390918127,9.9355513695,0,17.9874529188,2.6561428563,17.9874529188,5.9390918127,0,.6406610009-.3103812083,1.2618605687-.8832587061,1.8416558702-.3198798916.3237426132-.068815739.7869073039.4612201945.8562380546,5.5719715925.7288354407,9.4596975392,2.3860631488,9.4596975392,4.3067252183Z"/><path class="cls-17" d="m361.9012715246,201.5711957351c.0112916769,2.6214264587-4.6270320033,4.7693754314-10.3616330614,4.7930071031-1.1169956842.0046030186-2.1944740941-.0730691164-3.202410497-.2155292988-1.0691927795,1.8458836891-5.0724998525,3.2287955381-9.8497108223,3.2484819086-5.5949613797.0230562316-10.1408474563-1.8348741992-10.1508000803-4.1454319877-.0056079873-1.3019258651,1.4155787462-2.4630818232,3.6562186236-3.2464403093-2.4372570538-.8696390039-3.9989120675-2.2179134829-4.0054799792-3.7426912007-.0115189381-2.6741864379,4.7962417377-4.8580195175,10.7502244005-4.8825552371,5.0364635376-.0207547223,9.281775896,1.5158711843,10.45775493,3.6163789304.737654949-.0851163092,1.5153575514-.1293772912,2.3032808286-.1326242379,5.7346010582-.0236316717,10.3912641348,2.0860136645,10.4025556575,4.7074043294Z"/><ellipse class="cls-23" cx="331.9076431547" cy="165.1939555618" rx="8.967473257" ry="2.8939038377"/><path class="cls-42" d="m10.2002708235,150.9037182841c.1067687895-3.2283169441,6.7540085273-5.6031158434,14.8364998118-5.303048343,2.8542539668.1059659483,5.5082594294.5329161815,7.7418511489,1.1805058995,3.0174841339-1.1440460726,7.291067134-1.7747307678,12.0053067349-1.5997116996,9.0225981037.3349695489,16.2389125747,3.4837078991,16.1216753002,7.0285554295-.104104042,3.147744245-5.9465157378,5.552387718-13.5668582439,5.816842169.740836976.7362116827,1.1410629467,1.5346471507,1.1138474412,2.3575494038-.1067687895,3.2283169442-6.7472784582,5.603330535-14.829728461,5.3032645673-8.0892614737-.3003188478-14.5565811398-3.1619687301-14.4498123503-6.3902856743.0287383843-.868948813.5294130347-1.6742736017,1.4061819974-2.3849640263-6.0773560391-.9343332617-10.4670812593-3.3443294293-10.3789633792-6.0087077259Z"/><path class="cls-36" d="m173.0383204051,123.2511848292c.0133596896,2.621416735-4.6232680524,4.7730241651-10.3578486833,4.801179797-1.1169917053.0054842035-2.1945310547-.0713378957-3.2025795294-.2130028832-1.0677362482,1.8467265898-5.0699511106,3.2327961762-9.8471450635,3.256251233-5.5949414499.0274700317-10.142291814-1.8268736183-10.1540672101-4.1374228364-.0066350614-1.3019210359,1.4136352059-2.4641977923,3.6536564026-3.2493236522-2.4379423446-.8677160063-4.0006605122-2.2147580923-4.0084313032-3.7395301542-.0136285726-2.6741765186,4.7924078038-4.8618017115,10.7463692579-4.8910344588,5.0364455972-.02472793,9.2829688629,1.5085484154,10.4606045998,3.6081277902.7375875721-.0856982111,1.5152550155-.1305727009,2.303175486-.1344412311,5.7345806309-.0281556319,10.3929065359,2.0778154544,10.4062660432,4.6991963958Z"/><ellipse class="cls-46" cx="634.5203625365" cy="143.6268711672" rx="22.0154209067" ry="7.4757694044"/><path class="cls-46" d="m785.0848077311,198.8937362612c-.0000000004,8.9525548627,23.7972149961,16.2017412203,53.146412316,16.2017412217,24.5620022895.0000000011,45.2305971079-5.0794738441,51.3189489592-11.9839765348,5.542040573,3.1024624014,14.4212962102,5.1099198725,24.4328201618,5.109919873,16.8050125962.0000000008,30.4318175056-5.6676019521,30.4318175059-12.6531702808.0000000003-6.9856302108-13.6268049086-12.6430834897-30.4318175048-12.6430834904-4.3998911295-.0000000002-8.5713644944.3852783662-12.3455315881,1.0848562547,3.7046354654-2.3522030183,5.8201670873-5.0693870528,5.8201670874-7.9690615954.0000000004-8.9424061874-20.1421670392-16.1916544271-44.992176972-16.1916544282-24.8500099328-.0000000011-44.9921769731,7.2492482367-44.9921769735,16.1916544242-.0000000001,2.6563538652,1.777815229,5.1707500413,4.9461417866,7.391144046-21.6320352464,2.0480521708-37.3346047782,8.1921468031-37.3346047785,15.4616305101Z"/><path class="cls-46" d="m700.6793557575,170.1576836403c-.0000000001,2.6196269795,3.5016172852,4.8133843587,8.194031271,5.368012263v.0049568924c1.0021531452,2.6047865272,5.3054785547,4.5658117614,10.4576819723,4.5658117616,5.8949761721.0000000003,10.6757932126-2.565191837,10.6757932127-5.7245760433.0000000001-2.7781266377-3.6843601073-5.0956854281-8.5712824011-5.6156453103-1.1848959673-2.3621405973-5.3054785547-4.1102008063-10.2042023145-4.1102008065-5.8301400694-.0000000003-10.5520217402,2.4661144381-10.5520217403,5.511641243Z"/><path class="cls-46" d="m731.2738103292,112.9884284527c-.0172474801,3.4448337864,5.9686808156,6.272285779,13.3720762085,6.309285418,1.442046381.0072068548,2.833159414-.0937459465,4.1345591001-.2799095307,1.3784571408,2.4268045847,6.5453526785,4.2482545199,12.7127532223,4.2790770792,7.2231199488.036098684,13.0937903435-2.4007155666,13.1089924864-5.4370347848.0085659243-1.7108693599-1.8250158195-3.2382305712-4.7169034177-4.2699734655,3.147405588-1.1402755522,5.1648888579-2.9104390014,5.1749210193-4.9141594497.0175946105-3.5141660229-6.1870417624-6.3889493705-13.8736597796-6.4273644594-6.5020967583-.0324952566-11.9843966517,1.9824007679-13.5047350253,4.7414820961-.952232218-.1126170017-1.9562079117-.1715870833-2.9734203561-.1766707633-7.4033953929-.036999639-13.4173362133,2.7304811104-13.4345834579,6.1752678601Z"/><ellipse class="cls-46" cx="778.4653555545" cy="156.6872054194" rx="39.219273593" ry="11.6885502241"/><ellipse class="cls-46" cx="742.0594131011" cy="136.0079597675" rx="17.4412804631" ry="6.7653197806"/><path class="cls-46" d="m828.8621338747,125.2071387917c-.0000000003,6.4712632475,11.266439998,11.7116334482,25.165721197,11.7116334489,8.3601042859.0000000004,15.7713255703-1.9011599821,20.3445586834-4.8260558246,3.846662228,4.4360647544,12.7538598857,7.531595638,23.1312601115,7.5315956385,13.8992811989.0000000006,25.1657211977-5.5572425934,25.165721198-12.4306957555.0000000003-5.5572425946-7.4026647978-10.2614587533-17.6091439967-11.8457463422,2.4020247712-2.1570381603,3.7953754856-4.704141775,3.7953754857-7.4340048905.0000000003-7.7752749717-11.2664399979-14.0759031792-25.1657211969-14.0759031798-13.8907247129-.0000000006-25.1571647117,6.3006282059-25.157164712,14.0759031775,0,2.1571125436.8633703144,4.2045098802,2.4190855693,6.0325511862-2.1968256263-.2924747077-4.5219463701-.450910905-6.9239711412-.4509109051-13.8992811989-.0000000006-25.1657211977,5.2403701991-25.165721198,11.7116334466Z"/><path class="cls-46" d="m680.1107431975,147.8179778692c.0383038093,2.8304813169,5.9317249544,5.0468456373,13.1539475138,4.9491100917,2.5504583505-.0345143668,4.9277836518-.3543319155,6.9336159131-.876040135,2.6741253806,1.0639453297,6.4789005193,1.7038054149,10.6913749158,1.6467996276,8.0622680898-.1091035569,14.56139853-2.7202329739,14.5193391021-5.8282378196-.0373478185-2.7598378443-5.2116042883-4.9859035417-12.0111977286-5.3732974802.6745050991-.6298508437,1.0459751208-1.3211751535,1.0362114292-2.0426685796-.0383038093-2.8304813169-5.9257118287-5.0468962101-13.1478975003-4.9491611637-7.2282721561.0978174124-13.0535474412,2.4727355202-13.0152436319,5.3032168371.0103100316.7618655241.4431397306,1.4776337615,1.2134588673,2.1181784753-5.4430259684.6943813929-9.4052215876,2.7160615481-9.3736088804,5.0521001465Z"/><path class="cls-46" d="m631.479843927,175.9626170062c-.0000000001,3.3191526605,9.3527740954,6.0084626196,20.8827093197,6.0084626201,11.5427517675.0000000005,20.8955258632-2.6893099578,20.8955258634-6.0084626183,0-.256595101-.0582140634-.5086821992-.1691030878-.7562547419-.1895077613-.4230979451.1873716641-.85941494.7970766079-.9169774019,9.8261397673-.9276893717,16.9954023786-3.8306955683,16.9954023787-7.264407868.0000000002-4.1889238163-10.6281380848-7.5780657796-23.7297117446-7.5780657802-13.1144688321-.0000000006-23.7426069174,3.3891419618-23.7426069176,7.5780657781,0,.8174602043.4096888567,1.6100883259,1.1658606895,2.349886105.42222668.4130838343.0908335965,1.0040651836-.6087893506,1.0925287072-7.3547451033.9299675917-12.4863637585,3.0445300496-12.4863637586,5.4952251999Z"/><ellipse class="cls-46" cx="686.7706034997" cy="197.955403321" rx="34.2014657428" ry="10.3418429445"/><path class="cls-46" d="m735.9282884766,188.4642232117c.037261202,2.6887395359,5.7702668707,4.7941151618,12.7959047563,4.7012739112,2.4810363659-.0327859936,4.793652263-.3365880652,6.7448869434-.832170745,2.6013372518,1.0106662266,6.3025486367,1.6184840907,10.4003619441,1.5643329776,7.842817868-.103639987,14.165045779-2.5840120901,14.1241311841-5.5363776318-.0363312327-2.6216336706-5.0697474679-4.7362248585-11.6842599518-5.1042193025.6561454648-.5983098546,1.0175042898-1.2550147735,1.0080063602-1.9403780325-.037261202-2.6887395359-5.7644174187-4.794163202-12.7900194206-4.7013224256-7.0315228159.0929190178-12.6982375149,2.3489085462-12.6609763129,5.037648082.0100293985.7237136466.4310777263,1.4036384167,1.1804292266,2.0121066253-5.2948699851.6596089128-9.1492169571,2.5800495565-9.1184647294,4.7991065414Z"/><path class="cls-46" d="m558.5539604553,185.4107075116c-.0000000001,2.6012907469,7.0856828943,4.7089603325,15.8207880042,4.7089603329,8.7448149521.0000000004,15.8304978467-2.1076695845,15.8304978468-4.7089603315,0-.2010990545-.0441031066-.3986650911-.1281128833-.5926929743-.1435715104-.3315908855.1419531983-.6735418222.6038670483-.7186547516,7.4443058024-.7270499508,12.8757554377-3.0021978365,12.8757554379-5.6932714165.0000000001-3.2829489565-8.0519015491-5.9390918131-17.9776835067-5.9390918136-9.9355513695-.0000000004-17.9874529189,2.6561428555-17.9874529191,5.9390918119,0,.6406610009.3103812082,1.2618605688.883258706,1.8416558702.3198798916.3237426132.068815739.7869073039-.4612201946.8562380546-5.5719715925.7288354405-9.4596975394,2.3860631484-9.4596975394,4.3067252179Z"/><path class="cls-46" d="m591.4577458342,203.1383453213c-.0133596897,2.621416735,4.6232680522,4.7730241653,10.3578486831,4.8011797975,1.1169917053.0054842036,2.1945310547-.0713378956,3.2025795294-.213002883,1.0677362481,1.8467265899,5.0699511104,3.2327961764,9.8471450633,3.2562512334,5.5949414499.027470032,10.1422918141-1.8268736179,10.1540672103-4.1374228359.0066350615-1.3019210359-1.4136352058-2.4641977923-3.6536564025-3.2493236523,2.4379423447-.8677160062,4.0006605123-2.2147580922,4.0084313034-3.739530154.0136285727-2.6741765186-4.7924078036-4.8618017117-10.7463692577-4.8910344593-5.0364455972-.0247279302-9.282968863,1.508548415-10.4606045999,3.6081277897-.7375875721-.0856982111-1.5152550155-.1305727009-2.303175486-.1344412312-5.7345806309-.0281556321-10.392906536,2.0778154539-10.4062660434,4.6991963954Z"/><ellipse class="cls-46" cx="621.4800625018" cy="166.7847781328" rx="8.967473257" ry="2.8939038377"/><path class="cls-46" d="m945.1729062359,152.521948554c-.1067687893-3.2283169442-6.7540085271-5.6031158437-14.8364998116-5.3030483437-2.8542539668.1059659481-5.5082594294.5329161813-7.741851149,1.1805058992-3.0174841338-1.1440460728-7.291067134-1.7747307681-12.0053067348-1.5997117001-9.0225981037.3349695485-16.2389125748,3.4837078984-16.1216753005,7.0285554287.1041040418,3.147744245,5.9465157376,5.5523877182,13.5668582437,5.8168421696-.7408369761.7362116826-1.1410629468,1.5346471507-1.1138474413,2.3575494037.1067687893,3.2283169442,6.7472784579,5.6033305353,14.8297284608,5.3032645679,8.0892614737-.3003188475,14.5565811399-3.1619687295,14.4498123506-6.3902856736-.0287383842-.868948813-.5294130347-1.6742736017-1.4061819972-2.3849640264,6.0773560391-.9343332614,10.4670812594-3.3443294288,10.3789633795-6.0087077254Z"/><path class="cls-46" d="m780.3348566556,124.8694150917c-.0133596897,2.621416735,4.6232680522,4.7730241653,10.3578486831,4.8011797975,1.1169917053.0054842036,2.1945310547-.0713378956,3.2025795294-.2130028831,1.0677362481,1.8467265899,5.0699511104,3.2327961764,9.8471450633,3.2562512334,5.5949414499.027470032,10.1422918141-1.8268736179,10.1540672103-4.1374228359.0066350615-1.3019210359-1.4136352058-2.4641977923-3.6536564025-3.2493236523,2.4379423447-.8677160062,4.0006605123-2.2147580922,4.0084313034-3.739530154.0136285727-2.6741765186-4.7924078036-4.8618017117-10.7463692577-4.8910344593-5.0364455972-.0247279302-9.282968863,1.508548415-10.4606045999,3.6081277897-.7375875721-.0856982111-1.5152550155-.1305727009-2.303175486-.1344412312-5.7345806309-.0281556321-10.392906536,2.0778154539-10.4062660434,4.6991963954Z"/><path class="cls-1" d="m784.0682780312,199.1690795505c-.0000000004,8.9525548627,23.7972149961,16.2017412203,53.146412316,16.2017412217,24.5620022895.0000000011,45.2305971079-5.0794738441,51.3189489592-11.9839765348,5.542040573,3.1024624014,14.4212962102,5.1099198725,24.4328201618,5.109919873,16.8050125962.0000000008,30.4318175056-5.6676019521,30.4318175059-12.6531702808.0000000003-6.9856302108-13.6268049086-12.6430834897-30.4318175048-12.6430834904-4.3998911295-.0000000002-8.5713644944.3852783662-12.3455315881,1.0848562547,3.7046354654-2.3522030183,5.8201670873-5.0693870528,5.8201670874-7.9690615954.0000000004-8.9424061874-20.1421670392-16.1916544271-44.992176972-16.1916544282s-44.9921769731,7.2492482367-44.9921769735,16.1916544242c-.0000000001,2.6563538652,1.777815229,5.1707500413,4.9461417866,7.391144046-21.6320352464,2.0480521708-37.3346047782,8.1921468031-37.3346047785,15.4616305101Z"/><ellipse class="cls-15" cx="867.298914579" cy="188.1644825514" rx="15.6589683262" ry="4.6318863838"/><path class="cls-27" d="m829.7047563418,123.9626740509c-.0000000003,6.4712632475,11.266439998,11.7116334482,25.165721197,11.7116334489,8.3601042859.0000000004,15.7713255703-1.9011599821,20.3445586834-4.8260558246,3.846662228,4.4360647544,12.7538598857,7.531595638,23.1312601115,7.5315956385,13.8992811989.0000000006,25.1657211977-5.5572425934,25.165721198-12.4306957555.0000000003-5.5572425946-7.4026647978-10.2614587533-17.6091439967-11.8457463422,2.4020247712-2.1570381603,3.7953754856-4.704141775,3.7953754857-7.4340048905.0000000003-7.7752749717-11.2664399979-14.0759031792-25.1657211969-14.0759031798-13.8907247129-.0000000006-25.1571647117,6.3006282059-25.157164712,14.0759031775,0,2.1571125436.8633703144,4.2045098802,2.4190855693,6.0325511862-2.1968256263-.2924747077-4.5219463701-.450910905-6.9239711412-.4509109051-13.8992811989-.0000000006-25.1657211977,5.2403701991-25.165721198,11.7116334466Z"/><ellipse class="cls-32" cx="885.4426300339" cy="120.870417553" rx="10.4539411976" ry="3.3106863632"/><path class="cls-18" d="m701.6628260576,171.4330269296c-.0000000001,2.6196269795,3.5016172852,4.8133843587,8.194031271,5.3680122629v.0049568924c1.0021531452,2.6047865272,5.3054785547,4.5658117614,10.4576819723,4.5658117616,5.8949761721.0000000003,10.6757932126-2.565191837,10.6757932127-5.7245760433.0000000001-2.7781266377-3.6843601073-5.0956854281-8.5712824011-5.6156453103-1.1848959673-2.3621405973-5.3054785547-4.1102008063-10.2042023145-4.1102008065-5.8301400694-.0000000003-10.5520217402,2.4661144381-10.5520217403,5.511641243Z"/><ellipse class="cls-19" cx="778.4488258546" cy="156.9625487088" rx="39.219273593" ry="11.6885502241"/><ellipse class="cls-2" cx="786.5824424839" cy="157.6948102668" rx="15.3491822127" ry="4.2628637934"/><ellipse class="cls-31" cx="743.0428834012" cy="137.2833030568" rx="17.4412804631" ry="6.7653197806"/><path class="cls-7" d="m681.0942134976,149.0933211585c.0383038093,2.8304813169,5.9317249544,5.0468456373,13.1539475138,4.9491100917,2.5504583505-.0345143668,4.9277836518-.3543319155,6.9336159131-.876040135,2.6741253806,1.0639453297,6.4789005193,1.7038054149,10.6913749158,1.6467996276,8.0622680898-.1091035569,14.56139853-2.7202329739,14.5193391021-5.8282378196-.0373478185-2.7598378443-5.2116042883-4.9859035417-12.0111977286-5.3732974802.6745050991-.6298508437,1.0459751208-1.3211751535,1.0362114292-2.0426685796-.0383038093-2.8304813169-5.9257118287-5.0468962101-13.1478975003-4.9491611637-7.2282721561.0978174124-13.0535474412,2.4727355202-13.0152436319,5.3032168371.0103100316.7618655241.4431397306,1.4776337615,1.2134588673,2.1181784753-5.4430259684.6943813929-9.4052215876,2.7160615481-9.3736088804,5.0521001465Z"/><path class="cls-41" d="m731.2992299686,112.8394419868c-.0172474801,3.4448337864,5.9686808156,6.272285779,13.3720762085,6.309285418,1.442046381.0072068548,2.833159414-.0937459465,4.1345591001-.2799095307,1.3784571408,2.4268045847,6.5453526785,4.2482545199,12.7127532223,4.2790770792,7.2231199488.036098684,13.0937903435-2.4007155666,13.1089924864-5.4370347848.0085659243-1.7108693599-1.8250158195-3.2382305712-4.7169034177-4.2699734655,3.147405588-1.1402755522,5.1648888579-2.9104390014,5.1749210193-4.9141594497.0175946105-3.5141660229-6.1870417624-6.3889493705-13.8736597796-6.4273644594-6.5020967583-.0324952566-11.9843966517,1.9824007679-13.5047350253,4.7414820961-.952232218-.1126170017-1.9562079117-.1715870833-2.9734203561-.1766707633-7.4033953929-.036999639-13.4173362133,2.7304811104-13.4345834579,6.1752678601Z"/><path class="cls-40" d="m632.4560228201,177.2574763996c.0026184451,3.3191516276,9.3575111992,6.001082443,20.8874428357,5.9919865966,11.5427481757-.0091059572,20.8933977922-2.7057933856,20.8907793471-6.0249450133-.0002024252-.2565950211-.0586153394-.5086361164-.1696996367-.7561211029-.18984148-.4229483127.1866936222-.8595624881.7963529659-.9176059221,9.8254048651-.9354408232,16.9923750939-3.8441018738,16.9896662738-7.277813105-.0033045986-4.1889225128-10.6341130355-7.5696789931-23.7356826184-7.5593432975-13.1144647512.0103458685-23.7399258702,3.4078712047-23.7366212716,7.5967937175.0006448859.8174599499.4109589113,1.6097646256,1.1677141276,2.3489656383.4225524262.4127506155.0916256649,1.0039932134-.6079272766,1.0930086349-7.3540091729.9357693848-12.4839580747,3.0543794657-12.4820247467,5.5050738534Z"/><ellipse class="cls-43" cx="687.7641150698" cy="199.2066375613" rx="34.2014657428" ry="10.3418429445"/><ellipse class="cls-8" cx="686.8576086945" cy="199.855246252" rx="13.3853710569" ry="3.7717139422"/><ellipse class="cls-20" cx="633.6088330709" cy="144.7085181577" rx="22.0154209067" ry="7.4757694044"/><path class="cls-5" d="m736.9117587766,189.7395665011c.037261202,2.6887395359,5.7702668707,4.7941151618,12.7959047563,4.7012739112,2.4810363659-.0327859936,4.793652263-.3365880652,6.7448869434-.832170745,2.6013372518,1.0106662266,6.3025486367,1.6184840907,10.4003619441,1.5643329776,7.842817868-.103639987,14.165045779-2.5840120901,14.1241311841-5.5363776318-.0363312327-2.6216336706-5.0697474679-4.7362248585-11.6842599518-5.1042193025.6561454648-.5983098546,1.0175042898-1.2550147735,1.0080063602-1.9403780325-.037261202-2.6887395359-5.7644174187-4.794163202-12.7900194206-4.7013224256-7.0315228159.0929190178-12.6982375149,2.3489085462-12.6609763129,5.037648082.0100293985.7237136466.4310777263,1.4036384167,1.1804292266,2.0121066253-5.2948699851.6596089128-9.1492169571,2.5800495565-9.1184647293,4.7991065414Z"/><path class="cls-14" d="m559.5374307554,186.6860508009c-.0000000001,2.6012907469,7.0856828943,4.7089603325,15.8207880042,4.7089603329,8.7448149521.0000000004,15.8304978467-2.1076695845,15.8304978468-4.7089603315,0-.2010990545-.0441031066-.3986650911-.1281128833-.5926929743-.1435715104-.3315908855.1419531983-.6735418222.6038670483-.7186547516,7.4443058024-.7270499508,12.8757554377-3.0021978365,12.8757554379-5.6932714165.0000000001-3.2829489565-8.051901549-5.9390918131-17.9776835067-5.9390918136-9.9355513695-.0000000004-17.9874529189,2.6561428555-17.9874529191,5.9390918119,0,.6406610009.3103812082,1.2618605688.883258706,1.8416558702.3198798916.3237426132.068815739.7869073039-.4612201946.8562380546-5.5719715925.7288354405-9.4596975394,2.3860631484-9.4596975394,4.3067252179Z"/><path class="cls-38" d="m592.4553758326,204.4647692784c-.011291677,2.6214264587,4.6270320031,4.7693754316,10.3616330612,4.7930071035,1.1169956842.0046030186,2.1944740941-.0730691163,3.202410497-.2155292987,1.0691927794,1.8458836891,5.0724998523,3.2287955383,9.8497108221,3.2484819091,5.5949613797.0230562319,10.1408474563-1.8348741987,10.1508000805-4.1454319873.0056079873-1.3019258651-1.4155787461-2.4630818233-3.6562186235-3.2464403094,2.4372570538-.8696390037,3.9989120677-2.2179134828,4.0054799793-3.7426912005.0115189382-2.6741864379-4.7962417375-4.8580195178-10.7502244003-4.8825552376-5.0364635376-.0207547225-9.2817758961,1.5158711839-10.4577549301,3.6163789299-.737654949-.0851163092-1.5153575514-.1293772913-2.3032808286-.132624238-5.7346010582-.0236316719-10.3912641349,2.086013664-10.4025556577,4.707404329Z"/><ellipse class="cls-30" cx="622.4490042042" cy="168.0875291065" rx="8.9674732571" ry="2.8939038377"/><path class="cls-26" d="m946.156376536,153.7972918433c-.1067687893-3.2283169442-6.7540085271-5.6031158437-14.8364998116-5.3030483437-2.8542539668.1059659481-5.5082594294.5329161813-7.741851149,1.1805058992-3.0174841338-1.1440460728-7.291067134-1.7747307681-12.0053067348-1.5997117001-9.0225981037.3349695485-16.2389125749,3.4837078984-16.1216753005,7.0285554287.1041040418,3.147744245,5.9465157376,5.5523877182,13.5668582437,5.8168421696-.7408369761.7362116826-1.1410629468,1.5346471507-1.1138474413,2.3575494037.1067687893,3.2283169442,6.7472784579,5.6033305353,14.8297284608,5.3032645679,8.0892614737-.3003188475,14.5565811399-3.1619687295,14.4498123506-6.3902856736-.0287383842-.868948813-.5294130347-1.6742736017-1.4061819972-2.3849640264,6.0773560391-.9343332614,10.4670812594-3.3443294288,10.3789633795-6.0087077254Z"/><path class="cls-25" d="m781.3183269557,126.144758381c-.0133596897,2.621416735,4.6232680522,4.7730241653,10.3578486831,4.8011797975,1.1169917053.0054842036,2.1945310547-.0713378956,3.2025795294-.213002883,1.0677362481,1.8467265899,5.0699511104,3.2327961764,9.8471450633,3.2562512334,5.5949414499.027470032,10.1422918141-1.8268736179,10.1540672103-4.1374228359.0066350614-1.3019210359-1.4136352058-2.4641977923-3.6536564025-3.2493236523,2.4379423447-.8677160062,4.0006605123-2.2147580922,4.0084313034-3.739530154.0136285727-2.6741765186-4.7924078036-4.8618017117-10.7463692577-4.8910344593-5.0364455972-.0247279302-9.282968863,1.508548415-10.4606045999,3.6081277897-.7375875721-.0856982111-1.5152550155-.1305727009-2.303175486-.1344412312-5.7345806309-.0281556321-10.392906536,2.0778154539-10.4062660434,4.6991963953Z"/><rect class="cls-34" x="4" y="4" width="948.2763297057" height="219.8246113553"/></g></svg>