<svg width="79" height="71" viewBox="0 0 79 71" fill="none" xmlns="http://www.w3.org/2000/svg">
<path d="M16.9952 1.93144C13.5462 -0.829917 8.44119 -0.295996 6.30761 3.57299C4.689 6.50811 3.38833 9.61401 2.43351 12.8372C0.720619 18.6196 0.154374 24.6662 0.767107 30.632C1.37984 36.5977 3.15955 42.3657 6.00463 47.6067C8.8497 52.8476 12.7044 57.4589 17.3487 61.1771C21.993 64.8954 27.3359 67.6478 33.0723 69.2773C38.8088 70.9068 44.8264 71.3815 50.7817 70.6741C56.737 69.9668 62.5133 68.0913 67.7807 65.1548C70.717 63.5179 73.463 61.5692 75.9729 59.3477C79.2814 56.4193 78.6854 51.3212 75.2364 48.5598L46.1158 25.2456L16.9952 1.93144Z" fill="#00DEEC" fill-opacity="0.5"/>
<path d="M7.22759 14.2574C8.07964 11.3811 9.24064 8.60844 10.686 5.98748C10.9296 5.54572 11.3006 5.29342 11.8404 5.21906C12.4361 5.13701 13.2019 5.29951 13.8703 5.83462L42.9909 29.1488L72.1115 52.463C72.7798 52.9981 73.106 53.7098 73.1562 54.309C73.2018 54.852 73.0368 55.2693 72.659 55.6036C70.4178 57.5874 67.9663 59.3269 65.3461 60.7876C60.6454 63.4081 55.4954 65.0791 50.192 65.709C44.8887 66.3389 39.536 65.9156 34.4386 64.4676C29.3413 63.0197 24.5967 60.5749 20.4736 57.274C16.3506 53.973 12.927 49.8782 10.3989 45.2212C7.87076 40.5641 6.28659 35.4337 5.74094 30.1211C5.19527 24.8083 5.699 19.4175 7.22759 14.2574Z" stroke="black" stroke-opacity="0.5" stroke-width="10"/>
</svg>
