<svg width="125" height="132" viewBox="0 0 125 132" fill="none" xmlns="http://www.w3.org/2000/svg">
<ellipse cx="61.5" cy="47" rx="47.5" ry="47" fill="#00DEEC" fill-opacity="0.5"/>
<path d="M104 47C104 70.1462 85.0221 89 61.5 89C37.9779 89 19 70.1462 19 47C19 23.8538 37.9779 5 61.5 5C85.0221 5 104 23.8538 104 47Z" stroke="black" stroke-opacity="0.5" stroke-width="10"/>
<path d="M117 131.5C121.418 131.5 125.051 127.905 124.505 123.52C123.807 117.923 122.376 112.434 120.242 107.2C117.102 99.4954 112.498 92.4952 106.694 86.5987C100.891 80.7022 94.0006 76.0248 86.4177 72.8336C78.8349 69.6425 70.7076 68 62.5 68C54.2924 68 46.1651 69.6425 38.5823 72.8337C30.9994 76.0248 24.1095 80.7022 18.3058 86.5987C12.5022 92.4952 7.89845 99.4954 4.75753 107.2C2.62357 112.434 1.19323 117.923 0.495432 123.52C-0.0511755 127.905 3.58172 131.5 8 131.5H30.6201C35.0384 131.5 38.4968 127.827 39.9079 123.64C40.0696 123.16 40.2463 122.685 40.4378 122.215C41.6379 119.272 43.3969 116.597 45.6143 114.344C47.8318 112.091 50.4643 110.304 53.3615 109.085C56.2588 107.866 59.364 107.238 62.5 107.238C65.636 107.238 68.7412 107.866 71.6385 109.085C74.5357 110.304 77.1682 112.091 79.3857 114.344C81.6031 116.597 83.3621 119.272 84.5622 122.215C84.7537 122.685 84.9304 123.16 85.0921 123.64C86.5032 127.827 89.9617 131.5 94.3799 131.5H117Z" fill="#00DEEC" fill-opacity="0.5"/>
<path d="M115.612 109.087C117.58 113.913 118.899 118.976 119.543 124.139C119.616 124.728 119.434 125.248 119.011 125.688C118.562 126.154 117.851 126.5 117 126.5H94.3799C92.9577 126.5 90.8736 125.139 89.8302 122.043C89.6355 121.465 89.4228 120.893 89.1922 120.328C87.7471 116.783 85.627 113.558 82.9491 110.837C80.2711 108.116 77.0874 105.953 73.5779 104.476C70.0682 102.999 66.3037 102.238 62.5 102.238C58.6963 102.238 54.9318 102.999 51.4221 104.476C47.9126 105.953 44.7289 108.116 42.0509 110.837C39.373 113.558 37.2529 116.783 35.8078 120.328C35.5772 120.893 35.3645 121.465 35.1698 122.043C34.1263 125.139 32.0423 126.5 30.6201 126.5H8C7.14948 126.5 6.43781 126.154 5.98883 125.688C5.56634 125.248 5.38356 124.728 5.45702 124.139C6.10072 118.976 7.42005 113.913 9.38753 109.087C12.2835 101.984 16.5261 95.5348 21.8693 90.1061C27.2124 84.6775 33.5512 80.3757 40.5217 77.4422C47.4921 74.5088 54.9601 73 62.5 73C70.0399 73 77.5079 74.5088 84.4783 77.4422C91.4488 80.3757 97.7876 84.6775 103.131 90.1061C108.474 95.5348 112.717 101.984 115.612 109.087Z" stroke="black" stroke-opacity="0.5" stroke-width="10"/>
</svg>
