<svg width="125" height="132" viewBox="0 0 125 132" fill="none" xmlns="http://www.w3.org/2000/svg">
<ellipse cx="63.5" cy="47" rx="47.5" ry="47" fill="#FF737B" fill-opacity="0.5"/>
<path d="M106 47C106 70.1462 87.0221 89 63.5 89C39.9779 89 21 70.1462 21 47C21 23.8538 39.9779 5 63.5 5C87.0221 5 106 23.8538 106 47Z" stroke="black" stroke-opacity="0.5" stroke-width="10"/>
<path d="M117 131.5C121.418 131.5 125.051 127.905 124.505 123.52C123.807 117.923 122.376 112.434 120.242 107.2C117.102 99.4954 112.498 92.4952 106.694 86.5987C100.891 80.7022 94.0006 76.0248 86.4177 72.8336C78.8349 69.6425 70.7076 68 62.5 68C54.2924 68 46.1651 69.6425 38.5823 72.8337C30.9994 76.0248 24.1095 80.7022 18.3058 86.5987C12.5022 92.4952 7.89845 99.4954 4.75753 107.2C2.62357 112.434 1.19323 117.923 0.495432 123.52C-0.0511754 127.905 3.58172 131.5 8 131.5H28.7342C33.1525 131.5 36.6183 127.84 37.9292 123.62C38.1536 122.898 38.4092 122.184 38.6955 121.482C39.9904 118.306 41.8883 115.42 44.2808 112.989C46.6734 110.558 49.5138 108.63 52.6399 107.315C55.7659 105.999 59.1164 105.322 62.5 105.322C65.8836 105.322 69.2341 105.999 72.3601 107.315C75.4862 108.63 78.3266 110.558 80.7192 112.989C83.1117 115.42 85.0096 118.306 86.3045 121.482C86.5908 122.184 86.8464 122.898 87.0708 123.62C88.3817 127.84 91.8475 131.5 96.2658 131.5H117Z" fill="#FF737B" fill-opacity="0.5"/>
<path d="M115.612 109.087C117.58 113.913 118.899 118.976 119.543 124.139C119.616 124.728 119.434 125.248 119.011 125.688C118.562 126.154 117.851 126.5 117 126.5H96.2658C94.8387 126.5 92.7808 125.147 91.8457 122.137C91.5789 121.278 91.275 120.43 90.9345 119.594C89.3947 115.818 87.1357 112.381 84.2827 109.482C81.4295 106.583 78.0379 104.279 74.2996 102.706C70.5611 101.133 66.5513 100.322 62.5 100.322C58.4487 100.322 54.4389 101.133 50.7004 102.706C46.9621 104.279 43.5705 106.583 40.7174 109.482C37.8643 112.381 35.6053 115.818 34.0655 119.594C33.725 120.43 33.4211 121.278 33.1543 122.137C32.2192 125.147 30.1613 126.5 28.7342 126.5H8C7.14948 126.5 6.43781 126.154 5.98883 125.688C5.56634 125.248 5.38356 124.728 5.45702 124.139C6.10072 118.976 7.42005 113.913 9.38753 109.087C12.2835 101.984 16.5261 95.5348 21.8693 90.1061C27.2124 84.6775 33.5512 80.3757 40.5217 77.4422C47.4921 74.5088 54.9601 73 62.5 73C70.0399 73 77.5079 74.5088 84.4783 77.4422C91.4488 80.3757 97.7876 84.6775 103.131 90.1061C108.474 95.5348 112.717 101.984 115.612 109.087Z" stroke="black" stroke-opacity="0.5" stroke-width="10"/>
</svg>
