<svg width="137" height="137" viewBox="0 0 137 137" fill="none" xmlns="http://www.w3.org/2000/svg">
<g id="Star 3">
<path d="M28.0659 16.3056C26.6885 3.38246 42.1315 -4.28004 51.5892 4.63376L76.3104 27.933C79.2838 30.7355 83.3333 32.0991 87.3963 31.666L121.175 28.0658C134.099 26.6885 141.761 42.1314 132.847 51.5892L109.548 76.3103C106.745 79.2838 105.382 83.3332 105.815 87.3962L109.415 121.175C110.793 134.098 95.3496 141.761 85.8919 132.847L61.1707 109.548C58.1972 106.745 54.1478 105.382 50.0848 105.815L16.3057 109.415C3.38254 110.792 -4.27997 95.3495 4.63383 85.8918L27.9331 61.1707C30.7356 58.1972 32.0992 54.1478 31.6661 50.0848L28.0659 16.3056Z" fill="#FDFF9B" fill-opacity="0.5"/>
<path d="M44.7305 11.911L69.4517 35.2103C74.5491 40.0145 81.4909 42.3521 88.4561 41.6097L122.235 38.0095C125.927 37.616 128.117 42.0282 125.57 44.7305L102.271 69.4516C97.4665 74.549 95.1289 81.4908 95.8713 88.456L99.4715 122.235C99.865 125.927 95.4528 128.117 92.7505 125.57L68.0294 102.271C62.932 97.4664 55.9902 95.1289 49.025 95.8712L15.2459 99.4714C11.5536 99.865 9.36427 95.4527 11.9111 92.7505L35.2104 68.0293C40.0146 62.9319 42.3521 55.9901 41.6098 49.0249L38.0096 15.2458C37.6161 11.5535 42.0283 9.36419 44.7305 11.911Z" stroke="black" stroke-opacity="0.5" stroke-width="20"/>
</g>
</svg>
