<svg width="268" height="134" viewBox="0 0 268 134" fill="none" xmlns="http://www.w3.org/2000/svg">
<mask id="path-1-inside-1_5_149" fill="white">
<path d="M260 134C264.418 134 268.025 130.415 267.761 126.005C266.873 111.142 263.512 96.5111 257.8 82.7204C251.066 66.4628 241.195 51.6907 228.752 39.2477C216.309 26.8046 201.537 16.9343 185.28 10.2001C169.022 3.46601 151.597 -7.69195e-07 134 0C116.403 7.69195e-07 98.978 3.46601 82.7204 10.2001C66.4628 16.9343 51.6907 26.8046 39.2477 39.2477C26.8046 51.6907 16.9343 66.4628 10.2001 82.7204C4.48787 96.5111 1.12714 111.142 0.238732 126.005C-0.0248882 130.415 3.58172 134 8 134L88.4238 134C92.842 134 96.3386 130.379 97.2722 126.06C97.7472 123.863 98.4196 121.707 99.2841 119.62C101.172 115.061 103.94 110.919 107.43 107.43C110.919 103.94 115.061 101.172 119.62 99.2841C124.179 97.3957 129.065 96.4238 134 96.4238C138.935 96.4238 143.821 97.3957 148.38 99.2841C152.939 101.172 157.081 103.94 160.57 107.43C164.06 110.919 166.828 115.061 168.716 119.62C169.58 121.707 170.253 123.863 170.728 126.06C171.661 130.379 175.158 134 179.576 134H260Z"/>
</mask>
<path d="M260 134C264.418 134 268.025 130.415 267.761 126.005C266.873 111.142 263.512 96.5111 257.8 82.7204C251.066 66.4628 241.195 51.6907 228.752 39.2477C216.309 26.8046 201.537 16.9343 185.28 10.2001C169.022 3.46601 151.597 -7.69195e-07 134 0C116.403 7.69195e-07 98.978 3.46601 82.7204 10.2001C66.4628 16.9343 51.6907 26.8046 39.2477 39.2477C26.8046 51.6907 16.9343 66.4628 10.2001 82.7204C4.48787 96.5111 1.12714 111.142 0.238732 126.005C-0.0248882 130.415 3.58172 134 8 134L88.4238 134C92.842 134 96.3386 130.379 97.2722 126.06C97.7472 123.863 98.4196 121.707 99.2841 119.62C101.172 115.061 103.94 110.919 107.43 107.43C110.919 103.94 115.061 101.172 119.62 99.2841C124.179 97.3957 129.065 96.4238 134 96.4238C138.935 96.4238 143.821 97.3957 148.38 99.2841C152.939 101.172 157.081 103.94 160.57 107.43C164.06 110.919 166.828 115.061 168.716 119.62C169.58 121.707 170.253 123.863 170.728 126.06C171.661 130.379 175.158 134 179.576 134H260Z" fill="#6B7AFF" fill-opacity="0.5" stroke="black" stroke-opacity="0.5" stroke-width="40" mask="url(#path-1-inside-1_5_149)"/>
</svg>
