<svg width="235" height="250" viewBox="0 0 235 250" fill="none" xmlns="http://www.w3.org/2000/svg">
<circle cx="117.5" cy="88.5" r="88.5" fill="#6B7AFF" fill-opacity="0.5"/>
<circle cx="117.5" cy="88.5" r="78.5" stroke="black" stroke-opacity="0.5" stroke-width="20"/>
<mask id="path-3-inside-1_10_2" fill="white">
<path d="M227 249.5C231.418 249.5 235.028 245.914 234.728 241.506C233.862 228.811 230.939 216.323 226.056 204.535C220.151 190.279 211.496 177.326 200.585 166.415C189.674 155.504 176.721 146.849 162.465 140.944C148.21 135.039 132.93 132 117.5 132C102.07 132 86.7904 135.039 72.5347 140.944C58.2789 146.849 45.3258 155.504 34.4149 166.415C23.5041 177.326 14.8491 190.279 8.94415 204.535C4.06125 216.323 1.1379 228.811 0.272235 241.506C-0.0283532 245.914 3.58172 249.5 8 249.5H63.4565C67.8748 249.5 71.386 245.892 72.1498 241.54C72.7299 238.235 73.6711 234.995 74.9614 231.88C77.2753 226.294 80.6668 221.218 84.9424 216.942C89.2179 212.667 94.2937 209.275 99.8799 206.961C105.466 204.647 111.453 203.457 117.5 203.457C123.547 203.457 129.534 204.647 135.12 206.961C140.706 209.275 145.782 212.667 150.058 216.942C154.333 221.218 157.725 226.294 160.039 231.88C161.329 234.995 162.27 238.235 162.85 241.54C163.614 245.892 167.125 249.5 171.543 249.5H227Z"/>
</mask>
<path d="M227 249.5C231.418 249.5 235.028 245.914 234.728 241.506C233.862 228.811 230.939 216.323 226.056 204.535C220.151 190.279 211.496 177.326 200.585 166.415C189.674 155.504 176.721 146.849 162.465 140.944C148.21 135.039 132.93 132 117.5 132C102.07 132 86.7904 135.039 72.5347 140.944C58.2789 146.849 45.3258 155.504 34.4149 166.415C23.5041 177.326 14.8491 190.279 8.94415 204.535C4.06125 216.323 1.1379 228.811 0.272235 241.506C-0.0283532 245.914 3.58172 249.5 8 249.5H63.4565C67.8748 249.5 71.386 245.892 72.1498 241.54C72.7299 238.235 73.6711 234.995 74.9614 231.88C77.2753 226.294 80.6668 221.218 84.9424 216.942C89.2179 212.667 94.2937 209.275 99.8799 206.961C105.466 204.647 111.453 203.457 117.5 203.457C123.547 203.457 129.534 204.647 135.12 206.961C140.706 209.275 145.782 212.667 150.058 216.942C154.333 221.218 157.725 226.294 160.039 231.88C161.329 234.995 162.27 238.235 162.85 241.54C163.614 245.892 167.125 249.5 171.543 249.5H227Z" fill="#6B7AFF" fill-opacity="0.5" stroke="black" stroke-opacity="0.5" stroke-width="40" mask="url(#path-3-inside-1_10_2)"/>
</svg>
