<svg width="115" height="92" viewBox="0 0 115 92" fill="none" xmlns="http://www.w3.org/2000/svg">
<mask id="path-1-inside-1_5_125" fill="white">
<path d="M99.7355 90.2605C103.577 92.4436 108.514 91.1128 110.189 87.0245C115.408 74.2913 116.31 60.1114 112.618 46.7004C108.216 30.7033 97.6383 17.1104 83.2133 8.91203C68.7884 0.713647 51.6974 -1.41866 35.7003 2.98419C22.2893 6.67529 10.568 14.7059 2.29826 25.7051C-0.356883 29.2366 1.02589 34.1591 4.86711 36.3423L52.3013 63.3014L99.7355 90.2605Z"/>
</mask>
<path d="M99.7355 90.2605C103.577 92.4436 108.514 91.1128 110.189 87.0245C115.408 74.2913 116.31 60.1114 112.618 46.7004C108.216 30.7033 97.6383 17.1104 83.2133 8.91203C68.7884 0.713647 51.6974 -1.41866 35.7003 2.98419C22.2893 6.67529 10.568 14.7059 2.29826 25.7051C-0.356883 29.2366 1.02589 34.1591 4.86711 36.3423L52.3013 63.3014L99.7355 90.2605Z" fill="#6B7AFF" fill-opacity="0.5" stroke="black" stroke-opacity="0.5" stroke-width="20" mask="url(#path-1-inside-1_5_125)"/>
</svg>
