<svg width="1123" height="493" viewBox="0 0 1123 493" fill="none" xmlns="http://www.w3.org/2000/svg">
<path d="M581.324 55.293C580.933 54.9025 580.3 54.9025 579.91 55.293L573.546 61.657C573.155 62.0475 573.155 62.6806 573.546 63.0712C573.936 63.4617 574.569 63.4617 574.96 63.0712L580.617 57.4143L586.274 63.0712C586.664 63.4617 587.297 63.4617 587.688 63.0712C588.078 62.6806 588.078 62.0475 587.688 61.657L581.324 55.293ZM579.91 492.707C580.3 493.098 580.933 493.098 581.324 492.707L587.688 486.343C588.078 485.953 588.078 485.32 587.688 484.929C587.297 484.538 586.664 484.538 586.274 484.929L580.617 490.586L574.96 484.929C574.569 484.538 573.936 484.538 573.546 484.929C573.155 485.32 573.155 485.953 573.546 486.343L579.91 492.707ZM579.617 56.0001L579.617 492L581.617 492L581.617 56.0001L579.617 56.0001Z" fill="white"/>
<path d="M76.2998 276.286C75.9055 276.673 75.8993 277.306 76.286 277.7L82.5878 284.126C82.9745 284.52 83.6076 284.526 84.002 284.14C84.3963 283.753 84.4024 283.12 84.0157 282.725L78.4141 277.014L84.1258 271.412C84.5201 271.025 84.5262 270.392 84.1395 269.998C83.7528 269.604 83.1197 269.598 82.7254 269.984L76.2998 276.286ZM1083.7 287.5C1084.1 287.113 1084.1 286.48 1083.72 286.086L1077.41 279.66C1077.03 279.266 1076.39 279.26 1076 279.646C1075.61 280.033 1075.6 280.666 1075.99 281.061L1081.59 286.772L1075.88 292.374C1075.48 292.761 1075.48 293.394 1075.86 293.788C1076.25 294.182 1076.88 294.188 1077.28 293.802L1083.7 287.5ZM76.9903 278L1082.99 287.786L1083.01 285.786L77.0097 276L76.9903 278Z" fill="white"/>
<circle cx="217.5" cy="126.5" r="66.5" stroke="white" stroke-width="2"/>
<circle cx="324" cy="217" r="38" stroke="white" stroke-width="2"/>
<circle cx="39" cy="362" r="38" stroke="white" stroke-width="2"/>
<circle cx="1084" cy="59" r="38" stroke="white" stroke-width="2"/>
<circle cx="86.5" cy="19.5" r="18.5" stroke="white" stroke-width="2"/>
<circle cx="441.5" cy="126.5" r="50.5" stroke="white" stroke-width="2"/>
<circle cx="454" cy="320" r="78" stroke="white" stroke-width="2"/>
<circle cx="669" cy="185" r="44" stroke="white" stroke-width="2"/>
<circle cx="791.5" cy="295.5" r="37.5" stroke="white" stroke-width="2"/>
<circle cx="306" cy="435" r="45" stroke="white" stroke-width="2"/>
<circle cx="658.5" cy="361.5" r="26.5" stroke="white" stroke-width="2"/>
<circle cx="869.5" cy="408.5" r="45.5" stroke="white" stroke-width="2"/>
<circle cx="847" cy="139" r="64" stroke="white" stroke-width="2"/>
<circle cx="978.5" cy="262.5" r="44.5" stroke="white" stroke-width="2"/>
</svg>
