<svg width="1123" height="493" viewBox="0 0 1123 493" fill="none" xmlns="http://www.w3.org/2000/svg">
<path d="M580.219 492.708C580.61 493.098 581.243 493.097 581.633 492.706L587.988 486.333C588.378 485.942 588.377 485.309 587.986 484.919C587.595 484.529 586.962 484.53 586.572 484.921L580.923 490.586L575.258 484.937C574.867 484.547 574.234 484.548 573.844 484.939C573.454 485.33 573.455 485.963 573.846 486.353L580.219 492.708ZM581.014 55.2921C580.623 54.9021 579.99 54.903 579.6 55.2941L573.245 61.6671C572.855 62.0581 572.856 62.6913 573.247 63.0813C573.638 63.4713 574.272 63.4704 574.662 63.0793L580.31 57.4144L585.975 63.0633C586.366 63.4532 586.999 63.4524 587.389 63.0613C587.779 62.6702 587.778 62.037 587.387 61.6471L581.014 55.2921ZM581.925 491.998L581.308 55.9988L579.308 56.0016L579.925 492.001L581.925 491.998Z" fill="white"/>
<path d="M76.2691 281.186C75.8786 281.576 75.8786 282.21 76.2691 282.6L82.6331 288.964C83.0236 289.355 83.6567 289.355 84.0473 288.964C84.4378 288.574 84.4378 287.94 84.0473 287.55L78.3904 281.893L84.0473 276.236C84.4378 275.846 84.4378 275.213 84.0473 274.822C83.6567 274.431 83.0236 274.431 82.6331 274.822L76.2691 281.186ZM1083.73 282.6C1084.12 282.21 1084.12 281.576 1083.73 281.186L1077.37 274.822C1076.98 274.431 1076.35 274.431 1075.95 274.822C1075.56 275.213 1075.56 275.846 1075.95 276.236L1081.61 281.893L1075.95 287.55C1075.56 287.94 1075.56 288.574 1075.95 288.964C1076.35 289.355 1076.98 289.355 1077.37 288.964L1083.73 282.6ZM76.9762 282.893H1083.03V280.893H76.9762V282.893Z" fill="white"/>
<circle cx="217.5" cy="126.5" r="66.5" stroke="white" stroke-width="2"/>
<circle cx="324" cy="217" r="38" stroke="white" stroke-width="2"/>
<circle cx="39" cy="362" r="38" stroke="white" stroke-width="2"/>
<circle cx="1084" cy="59" r="38" stroke="white" stroke-width="2"/>
<circle cx="86.5" cy="19.5" r="18.5" stroke="white" stroke-width="2"/>
<circle cx="441.5" cy="126.5" r="50.5" stroke="white" stroke-width="2"/>
<circle cx="454" cy="320" r="78" stroke="white" stroke-width="2"/>
<circle cx="669" cy="185" r="44" stroke="white" stroke-width="2"/>
<circle cx="791.5" cy="295.5" r="37.5" stroke="white" stroke-width="2"/>
<circle cx="306" cy="435" r="45" stroke="white" stroke-width="2"/>
<circle cx="658.5" cy="361.5" r="26.5" stroke="white" stroke-width="2"/>
<circle cx="869.5" cy="408.5" r="45.5" stroke="white" stroke-width="2"/>
<circle cx="847" cy="139" r="64" stroke="white" stroke-width="2"/>
<circle cx="978.5" cy="262.5" r="44.5" stroke="white" stroke-width="2"/>
</svg>
