<svg width="127" height="64" viewBox="0 0 127 64" fill="none" xmlns="http://www.w3.org/2000/svg">
<path d="M119 64C123.418 64 127.052 60.4041 126.497 56.0208C124.737 42.122 118.413 29.1108 108.401 19.0987C96.4927 7.19016 80.3412 0.500001 63.5 0.5C46.6588 0.499999 30.5073 7.19016 18.5987 19.0987C8.58663 29.1108 2.26319 42.122 0.50307 56.0208C-0.0520224 60.4041 3.58172 64 8 64L17.878 64C22.2963 64 25.7927 60.3786 26.7253 56.0598C28.2401 49.0448 31.744 42.5505 36.8972 37.3972C43.9527 30.3417 53.522 26.378 63.5 26.378C73.478 26.378 83.0473 30.3417 90.1028 37.3972C95.256 42.5505 98.7599 49.0448 100.275 56.0598C101.207 60.3786 104.704 64 109.122 64H119Z" fill="#FF737B" fill-opacity="0.5"/>
<path d="M104.866 22.6343C114.089 31.8579 119.915 43.8446 121.537 56.649C121.611 57.2344 121.43 57.7511 121.009 58.1885C120.562 58.6539 119.851 59 119 59H109.122C107.66 59 105.737 57.6657 105.162 55.0045C103.446 47.0574 99.4766 39.7 93.6383 33.8617C85.6451 25.8685 74.8041 21.378 63.5 21.378C52.1959 21.378 41.3549 25.8685 33.3617 33.8617C27.5234 39.7 23.554 47.0574 21.8379 55.0045C21.2633 57.6657 19.3401 59 17.878 59H8C7.14933 59 6.43814 58.6539 5.99057 58.1885C5.56995 57.751 5.38932 57.2344 5.46345 56.649C7.08498 43.8446 12.9106 31.8579 22.1343 22.6342C33.1051 11.6634 47.9848 5.5 63.5 5.5C79.0152 5.5 93.8949 11.6634 104.866 22.6343Z" stroke="black" stroke-opacity="0.5" stroke-width="10"/>
</svg>
