<svg width="93" height="92" viewBox="0 0 93 92" fill="none" xmlns="http://www.w3.org/2000/svg">
<path d="M19.8661 8.98186C19.079 1.59719 27.9035 -2.78141 33.308 2.31219L51.712 19.6577C53.4111 21.2591 55.7251 22.0383 58.0468 21.7909L83.1942 19.1106C90.5789 18.3236 94.9575 27.1481 89.8639 32.5525L72.5183 50.9566C70.9169 52.6557 70.1377 54.9697 70.3852 57.2914L73.0654 82.4388C73.8525 89.8234 65.028 94.202 59.6235 89.1084L41.2195 71.7629C39.5204 70.1615 37.2064 69.3823 34.8847 69.6298L9.73729 72.31C2.35262 73.0971 -2.02598 64.2725 3.06762 58.8681L20.4132 40.4641C22.0146 38.7649 22.7938 36.451 22.5463 34.1293L19.8661 8.98186Z" fill="#FF737B" fill-opacity="0.5"/>
<path d="M29.8786 5.95082L48.2827 23.2963C51.0438 25.8986 54.8039 27.1648 58.5767 26.7627L83.7241 24.0825C86.4934 23.7873 88.1353 27.0965 86.2253 29.1232L68.8797 47.5272C66.2774 50.2883 65.0113 54.0485 65.4134 57.8213L68.0936 82.9687C68.3887 85.738 65.0795 87.3799 63.0529 85.4698L44.6488 68.1243C41.8877 65.522 38.1276 64.2558 34.3548 64.6579L9.20738 67.3382C6.43811 67.6333 4.79617 64.3241 6.70625 62.2975L24.0518 43.8934C26.6541 41.1323 27.9202 37.3721 27.5181 33.5994L24.8379 8.45195C24.5428 5.68268 27.852 4.04074 29.8786 5.95082Z" stroke="black" stroke-opacity="0.5" stroke-width="10"/>
</svg>
