<svg width="449" height="34" viewBox="0 0 449 34" fill="none" xmlns="http://www.w3.org/2000/svg">
<g clip-path="url(#clip0_5_248)">
<g clip-path="url(#clip1_5_248)">
<path d="M418.847 0.000123501C408.02 0.000123501 402.516 7.4418 398.098 13.4215C393.733 19.3258 390.985 22.6653 385.334 22.6653C379.68 22.6653 376.939 19.3258 372.574 13.4255C368.152 7.44208 362.652 0 351.825 0C341.001 0 335.502 7.44563 331.079 13.4255C326.722 19.3258 323.977 22.6653 318.334 22.6653C312.698 22.6653 309.957 19.3258 305.599 13.4294C301.184 7.44603 295.688 0.000895379 284.868 0.000895379C274.051 0.000895379 268.551 7.44257 264.133 13.4223C259.779 19.3266 257.038 22.666 251.391 22.666C245.755 22.666 243.014 19.3305 238.656 13.4302C234.241 7.4468 228.741 0.00166726 217.921 0.00166726C207.104 0.00166726 201.605 7.44335 197.19 13.4231C192.832 19.3274 190.091 22.6668 184.451 22.6668C178.814 22.6668 176.073 19.3313 171.716 13.431C167.301 7.44758 161.801 0.00243914 150.981 0.00243914C140.164 0.00243914 134.672 7.44807 130.257 13.4279C125.899 19.3282 123.162 22.6677 117.525 22.6677C111.892 22.6677 109.151 19.3282 104.801 13.4319C100.39 7.44847 94.8966 0.00333451 84.0844 0.00333451C73.2603 0.00333451 67.7645 7.44896 63.3494 13.4288C58.9954 19.3291 56.2545 22.6686 50.6142 22.6686C44.9779 22.6686 42.2369 19.3291 37.8791 13.4327C33.4641 7.44937 27.9682 0.00422989 17.1514 0.00422989C14.3063 0.00422989 12 2.54142 12 5.67145C12 8.80148 14.3027 11.3387 17.1514 11.3387C22.7878 11.3387 25.5288 14.6782 29.8866 20.5745C34.3015 26.554 39.7975 34 50.6142 34C61.431 34 66.9304 26.5583 71.3456 20.5786C75.6995 14.6743 78.4404 11.3348 84.0844 11.3348C89.7172 11.3348 92.4546 14.6704 96.8048 20.5707C101.216 26.5541 106.712 33.9992 117.525 33.9992C128.342 33.9992 133.834 26.5536 138.249 20.5738C142.607 14.6734 145.34 11.334 150.981 11.334C156.624 11.334 159.365 14.6734 163.719 20.5738C168.134 26.5572 173.63 33.9992 184.451 33.9992C195.275 33.9992 200.771 26.5536 205.186 20.5738C209.54 14.6734 212.281 11.334 217.921 11.334C223.564 11.334 226.305 14.6734 230.66 20.5738C235.075 26.5572 240.571 33.9992 251.391 33.9992C262.215 33.9992 267.711 26.5536 272.133 20.5738C276.487 14.6734 279.228 11.334 284.869 11.334C290.505 11.334 293.246 14.6734 297.604 20.5698C302.019 26.5532 307.518 33.9983 318.335 33.9983C329.159 33.9983 334.655 26.5567 339.077 20.5769C343.435 14.6726 346.176 11.3332 351.826 11.3332C357.481 11.3332 360.225 14.6727 364.59 20.5769C369.009 26.5563 374.512 33.9983 385.336 33.9983C396.163 33.9983 401.667 26.5567 406.085 20.5769C410.45 14.6726 413.198 11.3332 418.849 11.3332C421.694 11.3332 424 8.79599 424 5.66596C424 2.53994 421.697 0.00268614 418.849 0.00268614L418.847 0.000123501Z" fill="#FF4242"/>
</g>
</g>
<defs>
<clipPath id="clip0_5_248">
<rect width="448.003" height="33.6063" fill="white"/>
</clipPath>
<clipPath id="clip1_5_248">
<rect width="412" height="34" fill="white" transform="translate(12)"/>
</clipPath>
</defs>
</svg>
