<svg width="80" height="80" viewBox="0 0 80 80" fill="none" xmlns="http://www.w3.org/2000/svg">
<path d="M16.5313 9.41862C15.7442 2.03396 24.5687 -2.34463 29.9732 2.74897L44.5923 16.5272C46.2914 18.1286 48.6054 18.9078 50.9271 18.6604L70.9027 16.5314C78.2874 15.7443 82.6659 24.5688 77.5723 29.9733L63.7941 44.5924C62.1927 46.2915 61.4135 48.6054 61.6609 50.9272L63.79 70.9028C64.577 78.2874 55.7525 82.666 50.3481 77.5724L35.729 63.7942C34.0298 62.1928 31.7159 61.4136 29.3942 61.661L9.41853 63.79C2.03387 64.5771 -2.34472 55.7526 2.74888 50.3481L16.5271 35.729C18.1286 34.0299 18.9077 31.716 18.6603 29.3942L16.5313 9.41862Z" fill="#FDFF9B" fill-opacity="0.5"/>
<path d="M26.5438 6.38759L41.1629 20.1659C43.924 22.7681 47.6842 24.0343 51.457 23.6322L71.4326 21.5032C74.2019 21.208 75.8438 24.5173 73.9337 26.5439L60.1555 41.163C57.5532 43.9241 56.287 47.6843 56.6891 51.4571L58.8181 71.4327C59.1133 74.2019 55.8041 75.8439 53.7774 73.9338L39.1583 60.1555C36.3972 57.5533 32.637 56.2871 28.8643 56.6892L8.88863 58.8182C6.11937 59.1133 4.47741 55.8041 6.38751 53.7775L20.1658 39.1584C22.7681 36.3973 24.0342 32.6371 23.6321 28.8643L21.5031 8.88872C21.208 6.11945 24.5172 4.4775 26.5438 6.38759Z" stroke="black" stroke-opacity="0.5" stroke-width="10"/>
</svg>
