<svg width="156" height="156" viewBox="0 0 156 156" fill="none" xmlns="http://www.w3.org/2000/svg">
<g id="Star 3">
<path d="M35.3474 9.18219C34.5604 1.79753 43.3849 -2.58104 48.7893 2.51256L87.3181 38.8253C89.0172 40.4267 91.3312 41.2059 93.6529 40.9584L146.299 35.3474C153.683 34.5603 158.062 43.3848 152.968 48.7893L116.656 87.318C115.054 89.0171 114.275 91.3311 114.523 93.6528L120.134 146.299C120.921 153.683 112.096 158.062 106.692 152.968L68.163 116.656C66.4639 115.054 64.1499 114.275 61.8282 114.522L9.18226 120.134C1.7976 120.921 -2.58097 112.096 2.51263 106.692L38.8254 68.1629C40.4268 66.4638 41.206 64.1498 40.9585 61.8281L35.3474 9.18219Z" fill="#FDFF9B" fill-opacity="0.5"/>
<path d="M50.9022 60.7683L45.8639 13.4969L80.4594 46.1025C84.2824 49.7057 89.4888 51.4589 94.7127 50.9021L141.984 45.8639L109.378 80.4593C105.775 84.2824 104.022 89.4888 104.579 94.7126L109.617 141.984L75.0217 109.378C71.1986 105.775 65.9922 104.022 60.7684 104.579L13.4969 109.617L46.1026 75.0216C49.7058 71.1986 51.4589 65.9922 50.9022 60.7683Z" stroke="black" stroke-opacity="0.5" stroke-width="20"/>
</g>
</svg>
