<?xml version="1.0" encoding="UTF-8"?><svg id="Layer_2" xmlns="http://www.w3.org/2000/svg" viewBox="0 0 109.280029296874091 124.570007325736697"><defs><style>.cls-1{fill:none;}.cls-1,.cls-2{stroke:#1a1a1a;stroke-linecap:round;stroke-linejoin:round;stroke-width:5px;}.cls-2{fill:#2f89d0;}</style></defs><g id="Layer_1-2"><path class="cls-2" d="m4.330017087193482,96.499999998512976c-.650024414140717,1.749999999970896-.960021972814502,3.539978027300094-.960021972894538,5.309997558550094-.000000000276486,6.1400146484375,3.749999999465217,11.910034179855757,9.840026854832104,14.190002441848264l8.880004882661524,3.330017090242109c7.839965820181533,2.929992676133224,16.569946289109794-1.040039061756033,19.500000000400178-8.880004881936657.659973144609467-1.749999999969987.969970703283252-3.549987792925094.969970703363288-5.309997558550094.000000000130967-2.95001220703125-.869995116925566-5.830017089882858-2.460021972285176-8.260009765735049l9.16003418078526-24.469970702713908,11.44000244140625.000000000512955,8.570007323374739,18.759948730853466-4.309997558681061,1.970031738088437c-7.610046386875183,3.47998046840803-10.960021973216499,12.459960937007963-7.480041504808469,20.070007323882237,2.550048827877617,5.570007324333346,8.04003906210346,8.859985351923569,13.79003906210346,8.859985352181866,2.0999755859375.000000000094587,4.239990234396828-.450012206840256,6.279968261780596-1.380004882530557l8.640014648615761-3.950012206642896c7.599975586093933-3.469970702783939,10.950012207591499-12.459960937008873,7.479980469652219-20.070007323883146-2.079956054483773-4.549987793062428-6.130004882474168-7.579956054963077-10.679992675399262-8.529968262198054l-7.289978026627068-15.940002441733668c17.479980468833674-1.929992674996356,31.080017090593174-16.749999998604835,31.080017091400805-34.739990232979835.000000000436557-9.6600341796875-3.910034178861679-18.400024414238032-10.240051268421666-24.720031738740545-6.320007323934988-6.329956054971262-15.059997558131727-10.239990235051664-24.709960937037977-10.239990235484584l-34.380004882813409-.000000001543413c-19.29998779296875-.000000000866748-34.95001220773338,15.650024412492712-34.950012208601038,34.960021971086462-.000000000824002,18.3499755859375,14.150024412561834,33.409973145166987,32.140014646873169,34.839965821755868l-6.369995117949657,16.989990234089419-4.440002441331671-1.659973144731339c-7.840026855337783-2.940002441758224-16.570007324266044,1.039978026599783-19.500000000398359,8.869995116312566Z"/><circle class="cls-1" cx="50.72458824476962" cy="27.626537409633102" r="1.741931973844999"/><circle class="cls-1" cx="24.603809083289889" cy="27.626537408460763" r="1.741931973844544"/><line class="cls-1" x1="37.260236093234198" y1="28.368469382990043" x2="37.260236092934065" y2="35.042463118719752"/><line class="cls-1" x1="44.886946820106459" y1="44.144002718137926" x2="29.624304763614418" y2="44.144002717452167"/></g></svg>