<?xml version="1.0" encoding="UTF-8"?><svg id="Layer_2" xmlns="http://www.w3.org/2000/svg" viewBox="0 0 322.495218668300367 359.564489572435377"><defs><style>.cls-1{fill:#ff95b4;}.cls-2{fill:#04a4a8;}.cls-2,.cls-3,.cls-4,.cls-5{stroke:#000;}.cls-2,.cls-3,.cls-5{stroke-miterlimit:10;}.cls-2,.cls-4,.cls-5{stroke-width:10px;}.cls-3{stroke-width:2px;}.cls-4{fill:#8beff2;stroke-linejoin:round;}.cls-5{fill:#d9d9d9;}</style></defs><g id="Layer_1-2"><rect class="cls-2" x="182.553147032259517" y="227.035611072302572" width="50.505618082493356" height="119.921348314038596" rx="25.252783799233494" ry="25.252783799233494"/><rect class="cls-2" x="78.637423055520514" y="224.501908884596816" width="50.505618082493925" height="119.921348328249536" rx="25.25278378715835" ry="25.25278378715835"/><path class="cls-4" d="m256.169982912739215,291.002313516919457l.000003726356226,40.175057975349773c.000001149168384,12.38957200128425-9.635733507318946,22.965566558323189-22.018559273015853,23.374370217105024-12.942142489402613.427268807801738-23.561400510610838-9.94129571036683-23.561400510610838-22.777282791084872v-28.186593028171046c0-.029490462668036-.02390674353228-.053397206203954-.053397206200316-.053397206203954h-58.653215352333063c-.029490463015463,0-.053397206691443.023906744077976-.053397206200316.053397207091621l.000000435287802,26.138791669756756c.000000206209734,12.382838348436053-9.624821186947884,22.956123626616318-22.000590757212194,23.374469305716048-12.939882193302765.437414721796813-23.569417003185663-9.92430490875995-23.569417003185663-22.776619120064424v-28.83880393167783c0-.024274324165162-.016529660755623-.045248650112626-.040103325054588-.051038742098171-5.985296346379982-1.470090349732345-11.671718372019313-3.686581908426888-16.959896674945412-6.560169533255248-10.164821113445214-5.517217833457835-18.861163318673789-13.412025209639978-25.310184432730239-22.95549166294586-.0063783626847-.009438903864066-.015692065897383-.016443850443466-.026527164314757-.019961954905739-34.20136760900823-11.1050199344063-58.923298168580004-43.250748701102566-58.923298168580004-81.154551264957263v-64.52001953125c0-34.777997246202176,20.505888822037377-64.99919807986862,49.939609416564053-78.705811081184038.018582725966553-.008653552054966.030417366742768-.027188397034479.030409570834308-.047687216675513l-.009997014742112-26.286479729485109c0-4.47003173828125,1.80999755859375-8.510009765625,4.739990234375-11.44000244140625,3.57000732421875-3.57000732421875,8.79998779296875-5.48004150390625,14.41998291015625-4.48004150390625,7.73004150390625,1.3800048828125,13.21002197265625,8.34002685546875,13.21002197265625,16.1800537109375v18.22509812530916c0,.03005942893742.024615866253953.053945120462231.054654986242895.052840340712464,1.564438551522471-.057536972849448,3.147788576929088-.067417344132991,4.731350992362422-.0389336463777.029695971305046.000534144446647.053959841707183-.023251719885593.053959841707183-.052952494656893v-17.686052324987031c0-7.86004638671875,5.49005126953125-14.82000732421875,13.23004150390625-16.20001220703125,5.6300048828125-1,10.8299560546875.94000244140625,14.39996337890625,4.3499755859375,2.92999267578125,2.79998779296875,4.739990234375,6.60003662109375,4.739990234375,10.57000732421875v26.105601015286084c0,.020954961772077.012366297323751.039819802838792.031562291202135.048223625888568,9.797457520264288,4.289233464745848,18.626474182718084,10.37420688446764,26.088493861141615,17.836165593200349,15.44000244140625,15.44000244140625,24.989990234375,36.770019531250909,24.989990234375,60.330017089844659v34.806588145358546c0,.029490462669855.023906743534098.053397206203954.053397206203954.053397206203954h40.496590586764796c38.469970703125,0,69.8699951171875,30.239990234375,71.75,68.23004150390625,1.289484597262344,26.040023400299106-11.650129233094049,49.292202756569168-31.756944119057152,62.884364222689328-.014454183972703.009770995729923-.023085176853783.025994605617598-.023085175234883.043441547812108Z"/><path class="cls-2" d="m317.40247074038416,153.782089457637994c.995831709216873,8.357956252766598-6.172514100289845,15.205334162343206-14.530350257398823,14.208495014259825-10.139898591762176-1.209385740985454-20.690439985366538,2.119252441047138-28.251748165595927,9.798126814866919-.038839972236019.03944387140109-.077563258979353.078954386026453-.116169883451221.118531137393802-4.602257204991474,4.717905065070227-12.68054300093354,1.390156705263507-12.311350062456768-5.190352101664757.42131527750098-7.50953933605706,3.331450116500491-14.946820945067884,8.842051549941971-20.992176391348039,9.938510138323181-10.902952630176515,25.774238431775302-13.887683770071817,38.820938194607152-8.158797295476688,4.147330396237521,1.821118401174317,7.010730088342825,5.718408311746316,7.546625343929918,10.216145289574342l.000003280423698.000027532394597Z"/><circle class="cls-5" cx="89.077798013396205" cy="125.782244786218143" r="54.72658972508134"/><rect class="cls-1" x="111.978078084150127" y="116.819354161218143" width="11.516601562500114" height="1.29736328125" rx=".535644531249934" ry=".535644531249934"/><path d="m122.958546834150184,111.819201573327518h-10.4447021484375c-3.057373046875,0-5.5357666015625,2.478408813476562-5.5357666015625,5.535720825195312v.226104736328125c0,3.05731201171875,2.4783935546875,5.535720825195312,5.5357666015625,5.535720825195312h10.4447021484375c3.057373046875,0,5.5357666015625-2.478408813476562,5.5357666015625-5.535720825195312v-.226104736328125c0-3.05731201171875-2.4783935546875-5.535720825195312-5.5357666015625-5.535720825195312h0Z"/><path class="cls-3" d="m77.740715294530673,136.431015013013166c.014676537588457-.669113929423474.284354704384896-1.272606257514781.807135574530548-1.811479089023123.522321931226543-.539843351161835,1.118258802653145-.80146150247856,1.7873727320748-.786784964884646.628314299581689.013781626756099,1.212627858594715.28207866775665,1.752450153029713.805360590275086l4.098692017209032,4.161743040211149c.309227721529169.242573939362046.582155244661408.366696148266783.817833106459148.371865574345065.314397147612908.006896077564306.592504625185029-.105139570974643.833831908706998-.335637478327044l4.219007520319792-4.03836809259883c.519338095546118-.381914255525771,1.034839558033127-.567019768150203,1.546514915828084-.555796533524699.668153938133401.014655480867077,1.241524262857638.322091069154339,1.720580441449783.922797288876609.47809618730389.600685162997252.710110135301875,1.254560329733067.694580800334734,1.962553906418179-.016371603984226.746393228302622-.304828462081787,1.330264596082998-.864400054639191,1.751155164422016l-3.906650877610446,3.218749473517164c-.24085781624126.230988431363585-.364116699409351.464556311584602-.369286125489452.700234173385979-.006896077562487.314397147614727.106013425078345.552664986633317.338227455549713.715752979986064l3.763054538881988,3.327911131500514c.540599482987091.444061584334122.803177625590251,1.040019512482104.786784964884646,1.787372732072981-.015529334970779.707993576686931-.276001447320596,1.351546638950822-.779965821755468,1.930210776235981-.504934894084727.579123076207907-1.11044440236401.861181001371733-1.818437979043665.845651666404592-.471835719243245-.010349380523621-.959504098524121-.218419162463761-1.461607264342092-.622257778150015l-4.037877568591284-4.219476987596863c-.230988431365404-.240857816243079-.503915954495824-.364980025147815-.818313102105094-.371876102710303-.235677861799559-.005169426080101-.513785339369861.106866222458848-.833351913066508.335648006692281l-4.277231991711233,3.978023111267248c-.562237178599389.498628806137276-1.157763443878139.741527127285735-1.786077743458009.72774550052236-.669113929425293-.014676537588457-1.25298529720385-.303133395687837-1.751155164420197-.864400054639191-.498628806135457-.562237178601208-.741585988424049-1.176973798050312-.726930507556972-1.845127736183713.01552933496896-.707993576683293.323666014517585-1.291433281590798.923450047357619-1.750340171451171l4.265577094212858-3.44666793201759c.23914169312593-.152749141190725.362390047925146-.385837025769433.369286125487633-.70023417338416.005169426080101-.23567786179774-.107729548193674-.474425696460457-.338227455549713-.715752979986064l-4.109051926096072-3.689427325323777c-.307873871781339-.282403049550339-.52769797324072-.572479321634091-.659472304367227-.870228816249437-.130814339838253-.29772843788669-.193237674076954-.604521752466098-.186341596514467-.918918900082645Z"/><rect class="cls-1" x="53.504445271650241" y="116.126971348718143" width="11.516601562499886" height="1.29736328125" rx=".5361328125" ry=".5361328125"/><path d="m64.485036091962684,111.126849278405643h-10.44482421875c-3.0572509765625,0-5.53564453125,2.478408813476562-5.53564453125,5.535720825195312v.226104736328125c0,3.05731201171875,2.4783935546875,5.535720825195312,5.53564453125,5.535720825195312h10.44482421875c3.0572509765625,0,5.5357666015625-2.478408813476562,5.5357666015625-5.535720825195312v-.226104736328125c0-3.05731201171875-2.478515625-5.535720825195312-5.5357666015625-5.535720825195312h0Z"/></g></svg>