<?xml version="1.0" encoding="UTF-8"?><svg id="Layer_2" xmlns="http://www.w3.org/2000/svg" viewBox="0 0 143.984913810127182 170.934147247994588"><defs><style>.cls-1{fill:#2f89d0;}.cls-2{stroke-width:7px;}.cls-2,.cls-3,.cls-4{fill:none;stroke:#1a1a1a;stroke-linecap:round;stroke-linejoin:round;}.cls-3{stroke-width:5px;}.cls-4{stroke-width:4px;}</style></defs><g id="Layer_1-2"><path class="cls-1" d="m114.180000000000291,55.8700000000008c.219999999999345-6.700000000000728,6.489999999999782-11.980000000000473,14.039999999999054-11.790000000000873,7.530000000000655.190000000000509,13.460000000000946,5.780000000000655,13.260000000000218,12.480000000000473l-.539999999999054,16.739999999999782c-.940000000000509,16.850000000000364-9.590000000000146,19.530000000000655-24.550000000001091,19.450000000000728l-9.289999999999054-.239999999999782v17.670000000000073l22.399999999999636,35c4.549999999999272,7.119999999998981,2.340000000000146,16.489999999999782-4.950000000000728,20.93999999999869-7.289999999999054,4.450000000000728-16.889999999999418,2.290000000000873-21.449999999998909-4.829999999999927l-24.040000000000873-37.579999999999927h-9.569999999999709v12.600000000000364c0,1.069999999999709-.109999999999673,2.1200000000008-.319999999999709,3.1200000000008-.239999999999782,6.769999999998618-5.930000000000291,12.209999999999127-12.9399999999996,12.209999999999127H23.5c-7.850000000000364,0-14.199999999999818-6.209999999999127-14.199999999999818-13.8700000000008,0-7.670000000000073,6.349999999999454-13.8799999999992,14.199999999999818-13.8799999999992h14.859999999999673c.039999999999964-10.399999999999636.090000000000146-20.799999999999272.130000000000109-31.200000000000728h-8.679999999999382v11.270000000000437c0,7.3700000000008-6.110000000000582,13.340000000000146-13.650000000000546,13.340000000000146-7.550000000000182,0-13.659999999999854-5.969999999999345-13.659999999999854-13.340000000000146v-14.360000000000582c.050000000000182-.949999999998909.1899999999996-2.289999999999054.579999999999927-3.849999999999454,1.880000000000109-7.469999999999345,7.579999999999927-11.799999999999272,9.590000000000146-13.170000000000073,5.630000000000109-3.829999999999927,11.350000000000364-4.219999999999345,13.75-4.239999999999782h20.119999999999891c-4.600000000000364-3.329999999999927-8.399999999999636-7.659999999999854-11.039999999999964-12.649999999999636-2.140000000000327-4.029999999999745-3.529999999999745-8.510000000000218-3.979999999999563-13.239999999999782,16.199999999999818-2.010000000000218,38.679999999999382-24.510000000000218,56.869999999998981-34.800000000000182,8.170000000000073,4.710000000000036,14.329999999999927,12.340000000000146,16.989999999999782,21.389999999999418.930000000000291,3.180000000000291,1.430000000000291,6.530000000000655,1.430000000000291,10,0,16.25-12.359999999998763,27-14.449999999998909,28.75l21.420000000000073.550000000000182.399999999999636-12.469999999999345Zm-15.450000000000728-21.690000000000509c0-.960000000000036-.779999999998836-1.739999999999782-1.739999999999782-1.739999999999782-.959999999999127,0-1.739999999999782.779999999999745-1.739999999999782,1.739999999999782s.780000000000655,1.739999999999782,1.739999999999782,1.739999999999782c.960000000000946,0,1.739999999999782-.779999999999745,1.739999999999782-1.739999999999782Zm-29.119999999999891,0c0-.960000000000036-.779999999999745-1.739999999999782-1.739999999999782-1.739999999999782s-1.739999999999782.779999999999745-1.739999999999782,1.739999999999782.779999999999745,1.739999999999782,1.739999999999782,1.739999999999782,1.739999999999782-.779999999999745,1.739999999999782-1.739999999999782Z"/><path class="cls-1" d="m101.670000000000073,2.630000000000109c19.639999999999418-2.109999999999673,22.219999999999345,23.170000000000073,5.959999999999127,25.850000000000364l-2.25.559999999999491c-2.659999999999854-9.049999999999272-8.819999999999709-16.679999999999382-16.989999999999782-21.389999999999418,4.790000000000873-2.720000000000255,9.280000000000655-4.590000000000146,13.280000000000655-5.020000000000437Z"/><circle class="cls-1" cx="96.989999999999782" cy="34.180000000000291" r="1.739999999999781"/><path class="cls-1" d="m69.079999999999927,2.5c7.059999999999491,0,13.659999999999854,1.880000000000109,19.309999999999491,5.150000000000546-18.1899999999996,10.289999999999964-40.669999999999163,32.789999999999964-56.869999999998981,34.800000000000182-.110000000000582-1.1200000000008-.160000000000764-2.260000000000218-.160000000000764-3.410000000000764C31.359999999999673,18.860000000000582,48.25,2.5,69.079999999999927,2.5Z"/><circle class="cls-1" cx="67.869999999999891" cy="34.180000000000291" r="1.739999999999781"/><path class="cls-1" d="m25.430000000000291,14.800000000000182c.960000000000036,0,1.739999999999782.779999999999745,1.739999999999782,1.739999999999782,0,.970000000000255-.779999999999745,1.75-1.739999999999782,1.75s-1.740000000000691-.779999999999745-1.740000000000691-1.75c0-.960000000000036.780000000000655-1.739999999999782,1.740000000000691-1.739999999999782Z"/><path class="cls-3" d="m92.360000000000582,67.789999999999964l21.420000000000073.550000000000182.399999999999636-12.469999999999345c.219999999999345-6.700000000000728,6.489999999999782-11.980000000000473,14.039999999999054-11.790000000000873,7.530000000000655.190000000000509,13.460000000000946,5.780000000000655,13.260000000000218,12.480000000000473l-.539999999999054,16.739999999999782c-.940000000000509,16.850000000000364-9.590000000000146,19.530000000000655-24.550000000001091,19.450000000000728l-9.289999999999054-.239999999999782v17.670000000000073l22.399999999999636,35c4.549999999999272,7.119999999998981,2.340000000000146,16.489999999999782-4.950000000000728,20.93999999999869-7.289999999999054,4.450000000000728-16.889999999999418,2.290000000000873-21.449999999998909-4.829999999999927l-24.040000000000873-37.579999999999927h-9.569999999999709v12.600000000000364c0,1.069999999999709-.109999999999673,2.1200000000008-.319999999999709,3.1200000000008-.239999999999782,6.769999999998618-5.930000000000291,12.209999999999127-12.9399999999996,12.209999999999127H23.5c-7.850000000000364,0-14.199999999999818-6.209999999999127-14.199999999999818-13.8700000000008,0-7.670000000000073,6.349999999999454-13.8799999999992,14.199999999999818-13.8799999999992h14.859999999999673c.039999999999964-10.399999999999636.090000000000146-20.799999999999272.130000000000109-31.200000000000728h-8.679999999999382v11.270000000000437c0,7.3700000000008-6.110000000000582,13.340000000000146-13.650000000000546,13.340000000000146-7.550000000000182,0-13.659999999999854-5.969999999999345-13.659999999999854-13.340000000000146v-14.360000000000582c.050000000000182-.949999999998909.1899999999996-2.289999999999054.579999999999927-3.849999999999454,1.880000000000109-7.469999999999345,7.579999999999927-11.799999999999272,9.590000000000146-13.170000000000073,5.630000000000109-3.829999999999927,11.350000000000364-4.219999999999345,13.75-4.239999999999782h20.119999999999891c-4.600000000000364-3.329999999999927-8.399999999999636-7.659999999999854-11.039999999999964-12.649999999999636-2.140000000000327-4.029999999999745-3.529999999999745-8.510000000000218-3.979999999999563-13.239999999999782-.110000000000582-1.1200000000008-.160000000000764-2.260000000000218-.160000000000764-3.410000000000764C31.359999999999673,18.860000000000582,48.25,2.5,69.079999999999927,2.5c7.059999999999491,0,13.659999999999854,1.880000000000109,19.309999999999491,5.150000000000546,8.170000000000073,4.710000000000036,14.329999999999927,12.340000000000146,16.989999999999782,21.389999999999418.930000000000291,3.180000000000291,1.430000000000291,6.530000000000655,1.430000000000291,10,0,16.25-12.359999999998763,27-14.449999999998909,28.75"/><path class="cls-3" d="m25.430000000000291,42.100000000000364c1.899999999999636.529999999999745,3.9399999999996.619999999999891,6.090000000000146.350000000000364,16.199999999999818-2.010000000000218,38.679999999999382-24.510000000000218,56.869999999998981-34.800000000000182,4.790000000000873-2.720000000000255,9.280000000000655-4.590000000000146,13.280000000000655-5.020000000000437,19.639999999999418-2.109999999999673,22.219999999999345,23.170000000000073,5.959999999999127,25.850000000000364"/><path class="cls-2" d="m27.170000000000073,16.539999999999964c0,.970000000000255-.779999999999745,1.75-1.739999999999782,1.75s-1.740000000000691-.779999999999745-1.740000000000691-1.75c0-.960000000000036.780000000000655-1.739999999999782,1.740000000000691-1.739999999999782s1.739999999999782.779999999999745,1.739999999999782,1.739999999999782Z"/><circle class="cls-3" cx="67.869999999999891" cy="34.180000000000291" r="1.739999999999781"/><circle class="cls-3" cx="96.989999999999782" cy="34.180000000000291" r="1.739999999999781"/><line class="cls-4" x1="84.329999999999927" y1="34.920000000000073" x2="84.329999999999927" y2="41.590000000000146"/><line class="cls-4" x1="75.709999999999127" y1="49.700000000000728" x2="90.969999999999345" y2="49.700000000000728"/></g></svg>