<?xml version="1.0" encoding="UTF-8"?><svg id="Layer_2" xmlns="http://www.w3.org/2000/svg" viewBox="0 0 121.038677596867274 165.045615995632033"><defs><style>.cls-1{fill:#ea645f;stroke-width:5px;}.cls-1,.cls-2{stroke:#1a1a1a;stroke-linejoin:round;}.cls-2{fill:none;stroke-linecap:round;stroke-width:4px;}</style></defs><g id="Layer_1-2"><path class="cls-1" d="m118.538677596867274,141.607513427734375c0,5.5699462890625-3.4100341796875,10.8199462890625-8.94000244140625,12.89996337890625l-13.2900390625,5.010009765625c-7.1300048828125,2.67999267578125-15.0799560546875-.91998291015625-17.760009765625-8.04998779296875-.5999755859375-1.60003662109375-.88995361328125-3.239990234375-.88995361328125-4.85003662109375,0-3.14996337890625,1.0899658203125-6.19000244140625,3.03997802734375-8.6199951171875l-11.55999755859375-30.719970703125h-17.33001708984375l-11.739990234375,27.25,3.6500244140625,1.57000732421875c6.989990234375,3.01995849609375,10.219970703125,11.1199951171875,7.20001220703125,18.1099853515625v.010009765625c-3.010009765625,6.989990234375-11.12005615234375,10.2099609375-18.11004638671875,7.20001220703125l-13.04998779296875-5.6300048828125c-6.989990234374091-3.010009765625-10.210021972655341-11.1199951171875-7.200012207030341-18.11004638671875,1.989990234374091-4.62994384765625,6.230041503905341-7.6199951171875,10.900024414061591-8.2099609375l9.55999755859375-22.19000244140625h-14.1600341796875c-12.569946289061591,0-20.429992675780341-13.6099853515625-14.149963378905341-24.489990234375L46.348675155461024,10.667510986328125C52.638653182804774-.222503662109375,68.348675155461024-.222503662109375,74.628643417179774,10.667510986328125l41.6400146484375,72.1199951171875c6.28997802734375,10.8800048828125-1.57000732421875,24.489990234375-14.1400146484375,24.489990234375h-14.55999755859375l8.60003662109375,22.83001708984375,3.719970703125-1.4000244140625c7.1300048828125-2.67999267578125,15.08001708984375.92999267578125,17.760009765625,8.04998779296875.5999755859375,1.60003662109375.8900146484375,3.239990234375.8900146484375,4.85003662109375Z"/><circle class="cls-2" cx="48.958949217694681" cy="36.488318894679878" r="1.741931973844544"/><circle class="cls-2" cx="75.079728379174867" cy="36.488318894679878" r="1.741931973843861"/><line class="cls-2" x1="62.423301369197361" y1="37.230250868641633" x2="62.423301369197361" y2="43.904244604371343"/><line class="cls-2" x1="54.796590641615694" y1="53.005784203446638" x2="70.059232698107735" y2="53.005784203446638"/></g></svg>